<svg width="22" height="22" viewBox="0 0 22 22" fill="none" xmlns="http://www.w3.org/2000/svg">
<path d="M14.4421 13.067H13.7179L13.4613 12.8195C14.3596 11.7745 14.9004 10.4178 14.9004 8.94198C14.9004 5.65114 12.2329 2.98364 8.9421 2.98364C5.65126 2.98364 2.98376 5.65114 2.98376 8.94198C2.98376 12.2328 5.65126 14.9003 8.9421 14.9003C10.4179 14.9003 11.7746 14.3595 12.8196 13.4611L13.0671 13.7178V14.442L17.6504 19.0161L19.0163 17.6503L14.4421 13.067ZM8.9421 13.067C6.6596 13.067 4.8171 11.2245 4.8171 8.94198C4.8171 6.65948 6.6596 4.81698 8.9421 4.81698C11.2246 4.81698 13.0671 6.65948 13.0671 8.94198C13.0671 11.2245 11.2246 13.067 8.9421 13.067Z" fill="#8B96A5"/>
</svg>
