<svg width="71" height="16" viewBox="0 0 71 16" fill="none" xmlns="http://www.w3.org/2000/svg">
<path d="M4.78409 15.4545V0.90909H5.71591V15.4545H4.78409ZM7.47159 5.5625C7.41856 5.06629 7.19508 4.67992 6.80114 4.40341C6.41099 4.12689 5.90341 3.98864 5.27841 3.98864C4.83902 3.98864 4.46212 4.05492 4.14773 4.1875C3.83333 4.32008 3.5928 4.5 3.42614 4.72727C3.25947 4.95455 3.17424 5.21402 3.17045 5.50568C3.17045 5.74811 3.22538 5.95833 3.33523 6.13636C3.44886 6.31439 3.60227 6.46591 3.79545 6.59091C3.98864 6.71212 4.20265 6.81439 4.4375 6.89773C4.67235 6.98106 4.90909 7.05114 5.14773 7.10795L6.23864 7.38068C6.67803 7.48295 7.10038 7.62121 7.50568 7.79545C7.91477 7.9697 8.2803 8.18939 8.60227 8.45455C8.92803 8.7197 9.18561 9.03977 9.375 9.41477C9.56439 9.78977 9.65909 10.2292 9.65909 10.733C9.65909 11.4148 9.48485 12.0152 9.13636 12.5341C8.78788 13.0492 8.28409 13.4527 7.625 13.7443C6.9697 14.0322 6.17614 14.1761 5.24432 14.1761C4.33902 14.1761 3.55303 14.036 2.88636 13.7557C2.22348 13.4754 1.70455 13.0663 1.32955 12.5284C0.958333 11.9905 0.757576 11.3352 0.727273 10.5625H2.80114C2.83144 10.9678 2.95644 11.3049 3.17614 11.5739C3.39583 11.8428 3.68182 12.0436 4.03409 12.1761C4.39015 12.3087 4.78788 12.375 5.22727 12.375C5.68561 12.375 6.08712 12.3068 6.43182 12.1705C6.7803 12.0303 7.05303 11.8371 7.25 11.5909C7.44697 11.3409 7.54735 11.0492 7.55114 10.7159C7.54735 10.4129 7.45833 10.1629 7.28409 9.96591C7.10985 9.76515 6.86553 9.59848 6.55114 9.46591C6.24053 9.32955 5.87689 9.20833 5.46023 9.10227L4.13636 8.76136C3.17803 8.51515 2.42045 8.14205 1.86364 7.64205C1.31061 7.13826 1.03409 6.4697 1.03409 5.63636C1.03409 4.95076 1.2197 4.35038 1.59091 3.83523C1.96591 3.32008 2.47538 2.92045 3.11932 2.63636C3.76326 2.34848 4.49242 2.20455 5.30682 2.20455C6.13258 2.20455 6.85606 2.34848 7.47727 2.63636C8.10227 2.92045 8.5928 3.31629 8.94886 3.82386C9.30492 4.32765 9.48864 4.9072 9.5 5.5625H7.47159ZM16.1577 2.36364V14H14.0497V4.41477H13.9815L11.2599 6.15341V4.22159L14.152 2.36364H16.1577ZM23.8452 2.36364V14H21.7372V4.41477H21.669L18.9474 6.15341V4.22159L21.8395 2.36364H23.8452ZM26.7997 14V12.4773L30.8395 8.51705C31.2259 8.12689 31.5478 7.7803 31.8054 7.47727C32.063 7.17424 32.2562 6.88068 32.3849 6.59659C32.5137 6.3125 32.5781 6.00947 32.5781 5.6875C32.5781 5.32008 32.4948 5.00568 32.3281 4.74432C32.1615 4.47917 31.9323 4.27462 31.6406 4.13068C31.349 3.98674 31.0175 3.91477 30.6463 3.91477C30.2637 3.91477 29.9285 3.99432 29.6406 4.15341C29.3527 4.30871 29.1293 4.5303 28.9702 4.81818C28.8149 5.10606 28.7372 5.44886 28.7372 5.84659H26.7315C26.7315 5.10795 26.9001 4.46591 27.2372 3.92045C27.5743 3.375 28.0384 2.95265 28.6293 2.65341C29.224 2.35417 29.9058 2.20455 30.6747 2.20455C31.455 2.20455 32.1406 2.35038 32.7315 2.64205C33.3224 2.93371 33.7808 3.33333 34.1065 3.84091C34.4361 4.34848 34.6009 4.92803 34.6009 5.57955C34.6009 6.01515 34.5175 6.44318 34.3509 6.86364C34.1842 7.28409 33.8906 7.75 33.4702 8.26136C33.0535 8.77273 32.4683 9.39205 31.7145 10.1193L29.7088 12.1591V12.2386H34.777V14H26.7997ZM40.8736 14.1591C40.0289 14.1591 39.2789 14.017 38.6236 13.733C37.9721 13.4489 37.4607 13.0606 37.0895 12.5682C36.7221 12.072 36.5402 11.5095 36.544 10.8807C36.5402 10.392 36.6463 9.94318 36.8622 9.53409C37.0781 9.125 37.3698 8.78409 37.7372 8.51136C38.1084 8.23485 38.5213 8.05871 38.9759 7.98295V7.90341C38.3774 7.77083 37.8925 7.46591 37.5213 6.98864C37.1539 6.50758 36.9721 5.95265 36.9759 5.32386C36.9721 4.72538 37.1387 4.19129 37.4759 3.72159C37.813 3.25189 38.2751 2.88258 38.8622 2.61364C39.4493 2.34091 40.1198 2.20455 40.8736 2.20455C41.6198 2.20455 42.2846 2.34091 42.8679 2.61364C43.455 2.88258 43.9171 3.25189 44.2543 3.72159C44.5952 4.19129 44.7656 4.72538 44.7656 5.32386C44.7656 5.95265 44.5781 6.50758 44.2031 6.98864C43.8319 7.46591 43.3527 7.77083 42.7656 7.90341V7.98295C43.2202 8.05871 43.6293 8.23485 43.9929 8.51136C44.3603 8.78409 44.652 9.125 44.8679 9.53409C45.0876 9.94318 45.1974 10.392 45.1974 10.8807C45.1974 11.5095 45.0118 12.072 44.6406 12.5682C44.2694 13.0606 43.758 13.4489 43.1065 13.733C42.4588 14.017 41.7145 14.1591 40.8736 14.1591ZM40.8736 12.5341C41.3092 12.5341 41.688 12.4602 42.0099 12.3125C42.3319 12.161 42.5819 11.9489 42.7599 11.6761C42.938 11.4034 43.0289 11.089 43.0327 10.733C43.0289 10.3617 42.9323 10.0341 42.7429 9.75C42.5573 9.46212 42.3016 9.23674 41.9759 9.07386C41.6539 8.91098 41.2865 8.82955 40.8736 8.82955C40.4569 8.82955 40.0857 8.91098 39.7599 9.07386C39.4342 9.23674 39.1766 9.46212 38.9872 9.75C38.8016 10.0341 38.7107 10.3617 38.7145 10.733C38.7107 11.089 38.7978 11.4034 38.9759 11.6761C39.1539 11.9451 39.4039 12.1553 39.7259 12.3068C40.0516 12.4583 40.4342 12.5341 40.8736 12.5341ZM40.8736 7.23295C41.2296 7.23295 41.544 7.16098 41.8168 7.01705C42.0933 6.87311 42.3111 6.67235 42.4702 6.41477C42.6293 6.1572 42.7107 5.85985 42.7145 5.52273C42.7107 5.18939 42.6312 4.89773 42.4759 4.64773C42.3205 4.39394 42.1046 4.19886 41.8281 4.0625C41.5516 3.92235 41.2334 3.85227 40.8736 3.85227C40.5062 3.85227 40.1823 3.92235 39.902 4.0625C39.6255 4.19886 39.4096 4.39394 39.2543 4.64773C39.1027 4.89773 39.0289 5.18939 39.0327 5.52273C39.0289 5.85985 39.1046 6.1572 39.2599 6.41477C39.419 6.66856 39.6368 6.86932 39.9134 7.01705C40.1937 7.16098 40.5137 7.23295 40.8736 7.23295ZM48.0114 14.125C47.6667 14.125 47.3712 14.0038 47.125 13.7614C46.8788 13.5189 46.7576 13.2235 46.7614 12.875C46.7576 12.5341 46.8788 12.2424 47.125 12C47.3712 11.7576 47.6667 11.6364 48.0114 11.6364C48.3447 11.6364 48.6345 11.7576 48.8807 12C49.1307 12.2424 49.2576 12.5341 49.2614 12.875C49.2576 13.1061 49.197 13.3163 49.0795 13.5057C48.9659 13.6951 48.8144 13.8466 48.625 13.9602C48.4394 14.0701 48.2348 14.125 48.0114 14.125ZM55.2102 14.2216C54.2746 14.2216 53.4716 13.9848 52.8011 13.5114C52.1345 13.0341 51.6212 12.3466 51.2614 11.4489C50.9053 10.5473 50.7273 9.46212 50.7273 8.19318C50.7311 6.92424 50.911 5.8447 51.267 4.95455C51.6269 4.06061 52.1402 3.37879 52.8068 2.90909C53.4773 2.43939 54.2784 2.20455 55.2102 2.20455C56.142 2.20455 56.9432 2.43939 57.6136 2.90909C58.2841 3.37879 58.7973 4.06061 59.1534 4.95455C59.5133 5.84848 59.6932 6.92803 59.6932 8.19318C59.6932 9.46591 59.5133 10.553 59.1534 11.4545C58.7973 12.3523 58.2841 13.0379 57.6136 13.5114C56.947 13.9848 56.1458 14.2216 55.2102 14.2216ZM55.2102 12.4432C55.9375 12.4432 56.5114 12.0852 56.9318 11.3693C57.3561 10.6496 57.5682 9.59091 57.5682 8.19318C57.5682 7.26894 57.4716 6.49242 57.2784 5.86364C57.0852 5.23485 56.8125 4.76136 56.4602 4.44318C56.108 4.12121 55.6913 3.96023 55.2102 3.96023C54.4867 3.96023 53.9148 4.32008 53.4943 5.03977C53.0739 5.75568 52.8617 6.80682 52.858 8.19318C52.8542 9.12121 52.947 9.90151 53.1364 10.5341C53.3295 11.1667 53.6023 11.6439 53.9545 11.9659C54.3068 12.2841 54.7254 12.4432 55.2102 12.4432ZM65.8821 14.2216C64.9465 14.2216 64.1435 13.9848 63.473 13.5114C62.8063 13.0341 62.2931 12.3466 61.9332 11.4489C61.5772 10.5473 61.3991 9.46212 61.3991 8.19318C61.4029 6.92424 61.5829 5.8447 61.9389 4.95455C62.2988 4.06061 62.812 3.37879 63.4787 2.90909C64.1491 2.43939 64.9503 2.20455 65.8821 2.20455C66.8139 2.20455 67.6151 2.43939 68.2855 2.90909C68.956 3.37879 69.4692 4.06061 69.8253 4.95455C70.1851 5.84848 70.3651 6.92803 70.3651 8.19318C70.3651 9.46591 70.1851 10.553 69.8253 11.4545C69.4692 12.3523 68.956 13.0379 68.2855 13.5114C67.6188 13.9848 66.8177 14.2216 65.8821 14.2216ZM65.8821 12.4432C66.6094 12.4432 67.1832 12.0852 67.6037 11.3693C68.0279 10.6496 68.2401 9.59091 68.2401 8.19318C68.2401 7.26894 68.1435 6.49242 67.9503 5.86364C67.7571 5.23485 67.4844 4.76136 67.1321 4.44318C66.7798 4.12121 66.3632 3.96023 65.8821 3.96023C65.1586 3.96023 64.5866 4.32008 64.1662 5.03977C63.7457 5.75568 63.5336 6.80682 63.5298 8.19318C63.526 9.12121 63.6188 9.90151 63.8082 10.5341C64.0014 11.1667 64.2741 11.6439 64.6264 11.9659C64.9787 12.2841 65.3973 12.4432 65.8821 12.4432Z" fill="#8B96A5"/>
<path d="M0 8.76136H71.2173V9.85227H0V8.76136Z" fill="#8B96A5"/>
</svg>
