<svg width="34" height="22" viewBox="0 0 34 22" fill="none" xmlns="http://www.w3.org/2000/svg">
<path d="M0.5 4C0.5 2.067 2.067 0.5 4 0.5H30C31.933 0.5 33.5 2.067 33.5 4V18C33.5 19.933 31.933 21.5 30 21.5H4C2.067 21.5 0.5 19.933 0.5 18V4Z" fill="white" stroke="#EEEEEE"/>
<path d="M21.099 5.05579C20.4616 4.31682 19.3092 4 17.835 4H13.5563C13.255 4.00001 12.9984 4.22284 12.9512 4.5255L11.1697 16.0167C11.1343 16.2433 11.3068 16.4485 11.5326 16.4485H14.1741L14.8375 12.1691L14.8169 12.3031C14.8641 12.0007 15.1185 11.7775 15.4197 11.7775H16.6749C19.1408 11.7775 21.0716 10.7589 21.6357 7.81228C21.6524 7.72513 21.6669 7.64031 21.6794 7.55744C21.6083 7.5191 21.6083 7.5191 21.6794 7.55744C21.8474 6.46833 21.6783 5.72698 21.099 5.05579Z" fill="#27346A"/>
<path d="M15.8482 7.1651C15.9204 7.13013 15.9994 7.11201 16.0794 7.11206H19.4337C19.8309 7.11206 20.2014 7.13835 20.54 7.19377C20.6347 7.20913 20.729 7.22747 20.8226 7.24876C20.9553 7.27854 21.0864 7.31499 21.2156 7.35797C21.382 7.4145 21.537 7.48034 21.6795 7.55744C21.8474 6.46791 21.6783 5.72698 21.099 5.05579C20.4612 4.31682 19.3092 4 17.835 4H13.556C13.2547 4 12.9984 4.22306 12.9512 4.5255L11.1697 16.0163C11.1343 16.2432 11.3068 16.4481 11.5322 16.4481H14.1741L15.5504 7.57177C15.5779 7.39466 15.6892 7.24261 15.8482 7.1651Z" fill="#27346A"/>
<path d="M21.6357 7.81246C21.0717 10.7587 19.1409 11.7777 16.675 11.7777H15.4194C15.1181 11.7777 14.8637 12.0008 14.8169 12.3033L13.9916 17.6242C13.9608 17.8225 14.1116 18.0022 14.3089 18.0022H16.5356C16.7991 18.0021 17.0234 17.8072 17.0646 17.5425L17.0863 17.4271L17.5059 14.722L17.533 14.5725C17.5741 14.3079 17.7984 14.1129 18.0619 14.1128H18.3952C20.5522 14.1128 22.2412 13.2216 22.7347 10.6441C22.9408 9.56694 22.8342 8.66762 22.2892 8.03594C22.1239 7.84461 21.9186 7.6866 21.6794 7.55762C21.6665 7.6409 21.6525 7.72531 21.6357 7.81246Z" fill="#2790C3"/>
<path d="M21.0892 7.31838C21.0012 7.29227 20.9124 7.26914 20.823 7.24906C20.7293 7.22811 20.6351 7.20989 20.5404 7.19443C20.2015 7.13864 19.8312 7.11231 19.4337 7.11231H16.0797C15.9997 7.11212 15.9206 7.1304 15.8485 7.16577C15.6894 7.24304 15.5779 7.3952 15.5507 7.57243L14.8378 12.1694L14.8172 12.3034C14.8641 12.0009 15.1185 11.7778 15.4198 11.7778H16.6754C19.1412 11.7778 21.072 10.7592 21.636 7.81257C21.6528 7.72542 21.6669 7.64097 21.6798 7.55773C21.537 7.48105 21.3824 7.41479 21.2159 7.35863C21.1739 7.34447 21.1317 7.33105 21.0892 7.31838" fill="#1F264F"/>
</svg>
