<svg width="567" height="180" viewBox="0 0 567 180" fill="none" xmlns="http://www.w3.org/2000/svg">
<g clip-path="url(#clip0_1_5528)">
<rect width="204" height="36" fill="#EFF2F4"/>
<path d="M11.4091 13.3636H13.0909L17.0455 23.0227H17.1818L21.1364 13.3636H22.8182V25H21.5V16.1591H21.3864L17.75 25H16.4773L12.8409 16.1591H12.7273V25H11.4091V13.3636ZM29.0071 25.1818C28.2192 25.1818 27.5279 24.9943 26.9332 24.6193C26.3423 24.2443 25.8802 23.7197 25.5469 23.0455C25.2173 22.3712 25.0526 21.5833 25.0526 20.6818C25.0526 19.7727 25.2173 18.9792 25.5469 18.3011C25.8802 17.6231 26.3423 17.0966 26.9332 16.7216C27.5279 16.3466 28.2192 16.1591 29.0071 16.1591C29.795 16.1591 30.4844 16.3466 31.0753 16.7216C31.67 17.0966 32.1321 17.6231 32.4616 18.3011C32.795 18.9792 32.9616 19.7727 32.9616 20.6818C32.9616 21.5833 32.795 22.3712 32.4616 23.0455C32.1321 23.7197 31.67 24.2443 31.0753 24.6193C30.4844 24.9943 29.795 25.1818 29.0071 25.1818ZM29.0071 23.9773C29.6056 23.9773 30.098 23.8239 30.4844 23.517C30.8707 23.2102 31.1567 22.8068 31.3423 22.3068C31.5279 21.8068 31.6207 21.2652 31.6207 20.6818C31.6207 20.0985 31.5279 19.5549 31.3423 19.0511C31.1567 18.5473 30.8707 18.1402 30.4844 17.8295C30.098 17.5189 29.6056 17.3636 29.0071 17.3636C28.4086 17.3636 27.9162 17.5189 27.5298 17.8295C27.1435 18.1402 26.8575 18.5473 26.6719 19.0511C26.4863 19.5549 26.3935 20.0985 26.3935 20.6818C26.3935 21.2652 26.4863 21.8068 26.6719 22.3068C26.8575 22.8068 27.1435 23.2102 27.5298 23.517C27.9162 23.8239 28.4086 23.9773 29.0071 23.9773ZM38.304 25.1818C37.5767 25.1818 36.9347 24.9981 36.3778 24.6307C35.821 24.2595 35.3854 23.7367 35.071 23.0625C34.7566 22.3845 34.5994 21.5833 34.5994 20.6591C34.5994 19.7424 34.7566 18.947 35.071 18.2727C35.3854 17.5985 35.8229 17.0777 36.3835 16.7102C36.9441 16.3428 37.5919 16.1591 38.3267 16.1591C38.8949 16.1591 39.3438 16.2538 39.6733 16.4432C40.0066 16.6288 40.2604 16.8409 40.4347 17.0795C40.6127 17.3144 40.7509 17.5076 40.8494 17.6591H40.9631V13.3636H42.304V25H41.0085V23.6591H40.8494C40.7509 23.8182 40.6108 24.0189 40.429 24.2614C40.2472 24.5 39.9877 24.714 39.6506 24.9034C39.3134 25.089 38.8646 25.1818 38.304 25.1818ZM38.4858 23.9773C39.0237 23.9773 39.4782 23.8371 39.8494 23.5568C40.2206 23.2727 40.5028 22.8807 40.696 22.3807C40.8892 21.8769 40.9858 21.2955 40.9858 20.6364C40.9858 19.9848 40.8911 19.4148 40.7017 18.9261C40.5123 18.4337 40.232 18.0511 39.8608 17.7784C39.4896 17.5019 39.0313 17.3636 38.4858 17.3636C37.9176 17.3636 37.4441 17.5095 37.0653 17.8011C36.6903 18.089 36.4081 18.4811 36.2188 18.9773C36.0331 19.4697 35.9403 20.0227 35.9403 20.6364C35.9403 21.2576 36.035 21.822 36.2244 22.3295C36.4176 22.8333 36.7017 23.2348 37.0767 23.5341C37.4555 23.8295 37.9252 23.9773 38.4858 23.9773ZM48.6051 25.1818C47.7642 25.1818 47.0388 24.9962 46.429 24.625C45.8229 24.25 45.3551 23.7273 45.0256 23.0568C44.6998 22.3826 44.5369 21.5985 44.5369 20.7045C44.5369 19.8106 44.6998 19.0227 45.0256 18.3409C45.3551 17.6553 45.8134 17.1212 46.4006 16.7386C46.9915 16.3523 47.6809 16.1591 48.4688 16.1591C48.9233 16.1591 49.3722 16.2348 49.8153 16.3864C50.2585 16.5379 50.6619 16.7841 51.0256 17.125C51.3892 17.4621 51.679 17.9091 51.8949 18.4659C52.1108 19.0227 52.2188 19.7083 52.2188 20.5227V21.0909H45.4915V19.9318H50.8551C50.8551 19.4394 50.7566 19 50.5597 18.6136C50.3665 18.2273 50.09 17.9223 49.7301 17.6989C49.3741 17.4754 48.9536 17.3636 48.4688 17.3636C47.9347 17.3636 47.4725 17.4962 47.0824 17.7614C46.696 18.0227 46.3987 18.3636 46.1903 18.7841C45.982 19.2045 45.8778 19.6553 45.8778 20.1364V20.9091C45.8778 21.5682 45.9915 22.1269 46.2188 22.5852C46.4498 23.0398 46.7699 23.3864 47.179 23.625C47.5881 23.8598 48.0634 23.9773 48.6051 23.9773C48.9574 23.9773 49.2756 23.928 49.5597 23.8295C49.8475 23.7273 50.0956 23.5758 50.304 23.375C50.5123 23.1705 50.6733 22.9167 50.7869 22.6136L52.0824 22.9773C51.946 23.4167 51.7169 23.803 51.3949 24.1364C51.0729 24.4659 50.6752 24.7235 50.2017 24.9091C49.7282 25.0909 49.196 25.1818 48.6051 25.1818ZM55.5994 13.3636V25H54.2585V13.3636H55.5994Z" fill="#505050"/>
<rect x="204" width="322.38" height="36" fill="white"/>
<line x1="204.5" x2="204.5" y2="36" stroke="#E0E7E9"/>
<path d="M219.568 24L221.477 12.3636H222.614L220.705 24H219.568ZM214.273 20.7727L214.455 19.6364H223.136L222.955 20.7727H214.273ZM215.477 24L217.386 12.3636H218.523L216.614 24H215.477ZM214.955 16.7273L215.136 15.5909H223.818L223.636 16.7273H214.955ZM228.826 24.1591C228.045 24.1591 227.356 24.0208 226.757 23.7443C226.163 23.464 225.699 23.0795 225.365 22.5909C225.032 22.0985 224.867 21.5379 224.871 20.9091C224.867 20.4167 224.964 19.9621 225.161 19.5455C225.358 19.125 225.627 18.7746 225.968 18.4943C226.312 18.2102 226.697 18.0303 227.121 17.9545V17.8864C226.564 17.7424 226.121 17.4299 225.791 16.9489C225.462 16.464 225.299 15.9129 225.303 15.2955C225.299 14.7045 225.449 14.1761 225.752 13.7102C226.055 13.2443 226.471 12.8769 227.002 12.608C227.536 12.339 228.144 12.2045 228.826 12.2045C229.5 12.2045 230.102 12.339 230.632 12.608C231.163 12.8769 231.579 13.2443 231.882 13.7102C232.189 14.1761 232.345 14.7045 232.348 15.2955C232.345 15.9129 232.176 16.464 231.843 16.9489C231.513 17.4299 231.076 17.7424 230.53 17.8864V17.9545C230.951 18.0303 231.329 18.2102 231.666 18.4943C232.004 18.7746 232.273 19.125 232.473 19.5455C232.674 19.9621 232.776 20.4167 232.78 20.9091C232.776 21.5379 232.606 22.0985 232.269 22.5909C231.935 23.0795 231.471 23.464 230.877 23.7443C230.286 24.0208 229.602 24.1591 228.826 24.1591ZM228.826 22.9091C229.352 22.9091 229.807 22.8239 230.189 22.6534C230.572 22.483 230.867 22.2424 231.076 21.9318C231.284 21.6212 231.39 21.2576 231.394 20.8409C231.39 20.4015 231.276 20.0133 231.053 19.6761C230.829 19.339 230.524 19.0739 230.138 18.8807C229.755 18.6875 229.318 18.5909 228.826 18.5909C228.329 18.5909 227.886 18.6875 227.496 18.8807C227.11 19.0739 226.805 19.339 226.581 19.6761C226.362 20.0133 226.254 20.4015 226.257 20.8409C226.254 21.2576 226.354 21.6212 226.559 21.9318C226.767 22.2424 227.064 22.483 227.451 22.6534C227.837 22.8239 228.295 22.9091 228.826 22.9091ZM228.826 17.3864C229.242 17.3864 229.612 17.303 229.934 17.1364C230.259 16.9697 230.515 16.7367 230.701 16.4375C230.886 16.1383 230.981 15.7879 230.985 15.3864C230.981 14.9924 230.888 14.6496 230.706 14.358C230.524 14.0625 230.273 13.8352 229.951 13.6761C229.629 13.5133 229.254 13.4318 228.826 13.4318C228.39 13.4318 228.009 13.5133 227.684 13.6761C227.358 13.8352 227.106 14.0625 226.928 14.358C226.75 14.6496 226.663 14.9924 226.666 15.3864C226.663 15.7879 226.752 16.1383 226.934 16.4375C227.119 16.7367 227.375 16.9697 227.701 17.1364C228.026 17.303 228.401 17.3864 228.826 17.3864ZM235.121 24L240.326 13.7045V13.6136H234.326V12.3636H241.78V13.6818L236.599 24H235.121ZM247.191 24.1591C246.411 24.1591 245.721 24.0208 245.123 23.7443C244.528 23.464 244.064 23.0795 243.731 22.5909C243.398 22.0985 243.233 21.5379 243.237 20.9091C243.233 20.4167 243.329 19.9621 243.526 19.5455C243.723 19.125 243.992 18.7746 244.333 18.4943C244.678 18.2102 245.062 18.0303 245.487 17.9545V17.8864C244.93 17.7424 244.487 17.4299 244.157 16.9489C243.828 16.464 243.665 15.9129 243.668 15.2955C243.665 14.7045 243.814 14.1761 244.117 13.7102C244.42 13.2443 244.837 12.8769 245.367 12.608C245.901 12.339 246.509 12.2045 247.191 12.2045C247.865 12.2045 248.468 12.339 248.998 12.608C249.528 12.8769 249.945 13.2443 250.248 13.7102C250.555 14.1761 250.71 14.7045 250.714 15.2955C250.71 15.9129 250.542 16.464 250.208 16.9489C249.879 17.4299 249.441 17.7424 248.896 17.8864V17.9545C249.316 18.0303 249.695 18.2102 250.032 18.4943C250.369 18.7746 250.638 19.125 250.839 19.5455C251.04 19.9621 251.142 20.4167 251.146 20.9091C251.142 21.5379 250.971 22.0985 250.634 22.5909C250.301 23.0795 249.837 23.464 249.242 23.7443C248.651 24.0208 247.968 24.1591 247.191 24.1591ZM247.191 22.9091C247.718 22.9091 248.172 22.8239 248.555 22.6534C248.937 22.483 249.233 22.2424 249.441 21.9318C249.65 21.6212 249.756 21.2576 249.759 20.8409C249.756 20.4015 249.642 20.0133 249.418 19.6761C249.195 19.339 248.89 19.0739 248.504 18.8807C248.121 18.6875 247.684 18.5909 247.191 18.5909C246.695 18.5909 246.252 18.6875 245.862 18.8807C245.475 19.0739 245.17 19.339 244.947 19.6761C244.727 20.0133 244.619 20.4015 244.623 20.8409C244.619 21.2576 244.72 21.6212 244.924 21.9318C245.132 22.2424 245.43 22.483 245.816 22.6534C246.203 22.8239 246.661 22.9091 247.191 22.9091ZM247.191 17.3864C247.608 17.3864 247.977 17.303 248.299 17.1364C248.625 16.9697 248.881 16.7367 249.066 16.4375C249.252 16.1383 249.346 15.7879 249.35 15.3864C249.346 14.9924 249.254 14.6496 249.072 14.358C248.89 14.0625 248.638 13.8352 248.316 13.6761C247.994 13.5133 247.619 13.4318 247.191 13.4318C246.756 13.4318 246.375 13.5133 246.049 13.6761C245.723 13.8352 245.471 14.0625 245.293 14.358C245.115 14.6496 245.028 14.9924 245.032 15.3864C245.028 15.7879 245.117 16.1383 245.299 16.4375C245.485 16.7367 245.74 16.9697 246.066 17.1364C246.392 17.303 246.767 17.3864 247.191 17.3864ZM256.987 24.1591C256.51 24.1515 256.032 24.0606 255.555 23.8864C255.078 23.7121 254.642 23.4186 254.248 23.0057C253.854 22.589 253.538 22.0265 253.299 21.3182C253.061 20.6061 252.941 19.7121 252.941 18.6364C252.941 17.6061 253.038 16.6932 253.231 15.8977C253.424 15.0985 253.705 14.4261 254.072 13.8807C254.44 13.3314 254.883 12.9148 255.402 12.6307C255.924 12.3466 256.513 12.2045 257.169 12.2045C257.82 12.2045 258.4 12.3352 258.907 12.5966C259.419 12.8542 259.835 13.214 260.157 13.6761C260.479 14.1383 260.688 14.6705 260.782 15.2727H259.396C259.267 14.75 259.017 14.3163 258.646 13.9716C258.275 13.6269 257.782 13.4545 257.169 13.4545C256.267 13.4545 255.557 13.8466 255.038 14.6307C254.523 15.4148 254.263 16.5152 254.26 17.9318H254.351C254.563 17.6098 254.815 17.3352 255.106 17.108C255.402 16.8769 255.727 16.6989 256.084 16.5739C256.44 16.4489 256.816 16.3864 257.214 16.3864C257.881 16.3864 258.491 16.553 259.044 16.8864C259.597 17.2159 260.04 17.6723 260.373 18.2557C260.707 18.8352 260.873 19.5 260.873 20.25C260.873 20.9697 260.712 21.6288 260.39 22.2273C260.068 22.822 259.616 23.2955 259.032 23.6477C258.453 23.9962 257.771 24.1667 256.987 24.1591ZM256.987 22.9091C257.464 22.9091 257.892 22.7898 258.271 22.5511C258.654 22.3125 258.955 21.9924 259.174 21.5909C259.398 21.1894 259.51 20.7424 259.51 20.25C259.51 19.7689 259.402 19.3314 259.186 18.9375C258.974 18.5398 258.68 18.2235 258.305 17.9886C257.934 17.7538 257.51 17.6364 257.032 17.6364C256.673 17.6364 256.337 17.7083 256.027 17.8523C255.716 17.9924 255.443 18.1856 255.209 18.4318C254.977 18.678 254.796 18.9602 254.663 19.2784C254.53 19.5928 254.464 19.9242 254.464 20.2727C254.464 20.7348 254.572 21.1667 254.788 21.5682C255.008 21.9697 255.307 22.2936 255.686 22.5398C256.068 22.786 256.502 22.9091 256.987 22.9091ZM266.635 24.1591C265.855 24.1591 265.165 24.0208 264.567 23.7443C263.972 23.464 263.508 23.0795 263.175 22.5909C262.841 22.0985 262.677 21.5379 262.68 20.9091C262.677 20.4167 262.773 19.9621 262.97 19.5455C263.167 19.125 263.436 18.7746 263.777 18.4943C264.122 18.2102 264.506 18.0303 264.93 17.9545V17.8864C264.374 17.7424 263.93 17.4299 263.601 16.9489C263.271 16.464 263.108 15.9129 263.112 15.2955C263.108 14.7045 263.258 14.1761 263.561 13.7102C263.864 13.2443 264.281 12.8769 264.811 12.608C265.345 12.339 265.953 12.2045 266.635 12.2045C267.309 12.2045 267.911 12.339 268.442 12.608C268.972 12.8769 269.389 13.2443 269.692 13.7102C269.999 14.1761 270.154 14.7045 270.158 15.2955C270.154 15.9129 269.985 16.464 269.652 16.9489C269.322 17.4299 268.885 17.7424 268.339 17.8864V17.9545C268.76 18.0303 269.139 18.2102 269.476 18.4943C269.813 18.7746 270.082 19.125 270.283 19.5455C270.483 19.9621 270.586 20.4167 270.589 20.9091C270.586 21.5379 270.415 22.0985 270.078 22.5909C269.745 23.0795 269.281 23.464 268.686 23.7443C268.095 24.0208 267.411 24.1591 266.635 24.1591ZM266.635 22.9091C267.161 22.9091 267.616 22.8239 267.999 22.6534C268.381 22.483 268.677 22.2424 268.885 21.9318C269.093 21.6212 269.199 21.2576 269.203 20.8409C269.199 20.4015 269.086 20.0133 268.862 19.6761C268.639 19.339 268.334 19.0739 267.947 18.8807C267.565 18.6875 267.127 18.5909 266.635 18.5909C266.139 18.5909 265.696 18.6875 265.305 18.8807C264.919 19.0739 264.614 19.339 264.391 19.6761C264.171 20.0133 264.063 20.4015 264.067 20.8409C264.063 21.2576 264.163 21.6212 264.368 21.9318C264.576 22.2424 264.874 22.483 265.26 22.6534C265.646 22.8239 266.105 22.9091 266.635 22.9091ZM266.635 17.3864C267.052 17.3864 267.421 17.303 267.743 17.1364C268.069 16.9697 268.324 16.7367 268.51 16.4375C268.696 16.1383 268.79 15.7879 268.794 15.3864C268.79 14.9924 268.697 14.6496 268.516 14.358C268.334 14.0625 268.082 13.8352 267.76 13.6761C267.438 13.5133 267.063 13.4318 266.635 13.4318C266.199 13.4318 265.819 13.5133 265.493 13.6761C265.167 13.8352 264.915 14.0625 264.737 14.358C264.559 14.6496 264.472 14.9924 264.476 15.3864C264.472 15.7879 264.561 16.1383 264.743 16.4375C264.929 16.7367 265.184 16.9697 265.51 17.1364C265.836 17.303 266.211 17.3864 266.635 17.3864ZM276.431 24.1591C275.953 24.1515 275.476 24.0606 274.999 23.8864C274.522 23.7121 274.086 23.4186 273.692 23.0057C273.298 22.589 272.982 22.0265 272.743 21.3182C272.505 20.6061 272.385 19.7121 272.385 18.6364C272.385 17.6061 272.482 16.6932 272.675 15.8977C272.868 15.0985 273.148 14.4261 273.516 13.8807C273.883 13.3314 274.327 12.9148 274.845 12.6307C275.368 12.3466 275.957 12.2045 276.612 12.2045C277.264 12.2045 277.844 12.3352 278.351 12.5966C278.862 12.8542 279.279 13.214 279.601 13.6761C279.923 14.1383 280.131 14.6705 280.226 15.2727H278.84C278.711 14.75 278.461 14.3163 278.09 13.9716C277.719 13.6269 277.226 13.4545 276.612 13.4545C275.711 13.4545 275.001 13.8466 274.482 14.6307C273.967 15.4148 273.707 16.5152 273.703 17.9318H273.794C274.006 17.6098 274.258 17.3352 274.55 17.108C274.845 16.8769 275.171 16.6989 275.527 16.5739C275.883 16.4489 276.26 16.3864 276.658 16.3864C277.325 16.3864 277.934 16.553 278.487 16.8864C279.041 17.2159 279.484 17.6723 279.817 18.2557C280.15 18.8352 280.317 19.5 280.317 20.25C280.317 20.9697 280.156 21.6288 279.834 22.2273C279.512 22.822 279.059 23.2955 278.476 23.6477C277.897 23.9962 277.215 24.1667 276.431 24.1591ZM276.431 22.9091C276.908 22.9091 277.336 22.7898 277.715 22.5511C278.097 22.3125 278.398 21.9924 278.618 21.5909C278.842 21.1894 278.953 20.7424 278.953 20.25C278.953 19.7689 278.845 19.3314 278.63 18.9375C278.417 18.5398 278.124 18.2235 277.749 17.9886C277.378 17.7538 276.953 17.6364 276.476 17.6364C276.116 17.6364 275.781 17.7083 275.47 17.8523C275.16 17.9924 274.887 18.1856 274.652 18.4318C274.421 18.678 274.239 18.9602 274.107 19.2784C273.974 19.5928 273.908 19.9242 273.908 20.2727C273.908 20.7348 274.016 21.1667 274.232 21.5682C274.452 21.9697 274.751 22.2936 275.13 22.5398C275.512 22.786 275.946 22.9091 276.431 22.9091ZM282.715 24L287.92 13.7045V13.6136H281.92V12.3636H289.374V13.6818L284.192 24H282.715Z" fill="#505050"/>
<line y1="0.5" x2="567" y2="0.5" stroke="#E0E7E9"/>
<rect y="36" width="204" height="36" fill="#EFF2F4"/>
<path d="M17.7727 52.2727C17.7045 51.697 17.428 51.25 16.9432 50.9318C16.4583 50.6136 15.8636 50.4545 15.1591 50.4545C14.6439 50.4545 14.1932 50.5379 13.8068 50.7045C13.4242 50.8712 13.125 51.1004 12.9091 51.392C12.697 51.6837 12.5909 52.0152 12.5909 52.3864C12.5909 52.697 12.6648 52.964 12.8125 53.1875C12.964 53.4072 13.1572 53.5909 13.392 53.7386C13.6269 53.8826 13.8731 54.0019 14.1307 54.0966C14.3883 54.1875 14.625 54.2614 14.8409 54.3182L16.0227 54.6364C16.3258 54.7159 16.6629 54.8258 17.0341 54.9659C17.4091 55.1061 17.767 55.2973 18.108 55.5398C18.4527 55.7784 18.7367 56.0852 18.9602 56.4602C19.1837 56.8352 19.2955 57.2955 19.2955 57.8409C19.2955 58.4697 19.1307 59.0379 18.8011 59.5455C18.4754 60.053 17.9981 60.4564 17.3693 60.7557C16.7443 61.0549 15.9848 61.2045 15.0909 61.2045C14.2576 61.2045 13.536 61.0701 12.9261 60.8011C12.3201 60.5322 11.8428 60.1572 11.4943 59.6761C11.1496 59.1951 10.9545 58.6364 10.9091 58H12.3636C12.4015 58.4394 12.5492 58.803 12.8068 59.0909C13.0682 59.375 13.3977 59.5871 13.7955 59.7273C14.197 59.8636 14.6288 59.9318 15.0909 59.9318C15.6288 59.9318 16.1117 59.8447 16.5398 59.6705C16.9678 59.4924 17.3068 59.2462 17.5568 58.9318C17.8068 58.6136 17.9318 58.2424 17.9318 57.8182C17.9318 57.4318 17.8239 57.1174 17.608 56.875C17.392 56.6326 17.108 56.4356 16.7557 56.2841C16.4034 56.1326 16.0227 56 15.6136 55.8864L14.1818 55.4773C13.2727 55.2159 12.553 54.8428 12.0227 54.358C11.4924 53.8731 11.2273 53.2386 11.2273 52.4545C11.2273 51.803 11.4034 51.2348 11.7557 50.75C12.1117 50.2614 12.589 49.8826 13.1875 49.6136C13.7898 49.3409 14.4621 49.2045 15.2045 49.2045C15.9545 49.2045 16.6212 49.339 17.2045 49.608C17.7879 49.8731 18.25 50.2367 18.5909 50.6989C18.9356 51.161 19.1174 51.6856 19.1364 52.2727H17.7727ZM25.2259 52.2727V53.4091H20.7031V52.2727H25.2259ZM22.0213 50.1818H23.3622V58.5C23.3622 58.8788 23.4171 59.1629 23.527 59.3523C23.6406 59.5379 23.7846 59.6629 23.9588 59.7273C24.1368 59.7879 24.3243 59.8182 24.5213 59.8182C24.669 59.8182 24.7902 59.8106 24.8849 59.7955C24.9796 59.7765 25.0554 59.7614 25.1122 59.75L25.3849 60.9545C25.294 60.9886 25.1671 61.0227 25.0043 61.0568C24.8414 61.0947 24.6349 61.1136 24.3849 61.1136C24.0062 61.1136 23.6349 61.0322 23.2713 60.8693C22.9115 60.7064 22.6122 60.4583 22.3736 60.125C22.1387 59.7917 22.0213 59.3712 22.0213 58.8636V50.1818ZM28.1065 64.2727C27.8793 64.2727 27.6766 64.2538 27.4986 64.2159C27.3205 64.1818 27.1974 64.1477 27.1293 64.1136L27.4702 62.9318C27.7959 63.0152 28.0838 63.0455 28.3338 63.0227C28.5838 63 28.8054 62.8883 28.9986 62.6875C29.1955 62.4905 29.3755 62.1705 29.5384 61.7273L29.7884 61.0455L26.5611 52.2727H28.0156L30.4247 59.2273H30.5156L32.9247 52.2727H34.3793L30.6747 62.2727C30.508 62.7235 30.3016 63.0966 30.0554 63.392C29.8092 63.6913 29.5232 63.9129 29.1974 64.0568C28.8755 64.2008 28.5118 64.2727 28.1065 64.2727ZM37.4901 49.3636V61H36.1491V49.3636H37.4901ZM43.6051 61.1818C42.7642 61.1818 42.0388 60.9962 41.429 60.625C40.8229 60.25 40.3551 59.7273 40.0256 59.0568C39.6998 58.3826 39.5369 57.5985 39.5369 56.7045C39.5369 55.8106 39.6998 55.0227 40.0256 54.3409C40.3551 53.6553 40.8134 53.1212 41.4006 52.7386C41.9915 52.3523 42.6809 52.1591 43.4688 52.1591C43.9233 52.1591 44.3722 52.2348 44.8153 52.3864C45.2585 52.5379 45.6619 52.7841 46.0256 53.125C46.3892 53.4621 46.679 53.9091 46.8949 54.4659C47.1108 55.0227 47.2188 55.7083 47.2188 56.5227V57.0909H40.4915V55.9318H45.8551C45.8551 55.4394 45.7566 55 45.5597 54.6136C45.3665 54.2273 45.09 53.9223 44.7301 53.6989C44.3741 53.4754 43.9536 53.3636 43.4688 53.3636C42.9347 53.3636 42.4725 53.4962 42.0824 53.7614C41.696 54.0227 41.3987 54.3636 41.1903 54.7841C40.982 55.2045 40.8778 55.6553 40.8778 56.1364V56.9091C40.8778 57.5682 40.9915 58.1269 41.2188 58.5852C41.4498 59.0398 41.7699 59.3864 42.179 59.625C42.5881 59.8598 43.0634 59.9773 43.6051 59.9773C43.9574 59.9773 44.2756 59.928 44.5597 59.8295C44.8475 59.7273 45.0956 59.5758 45.304 59.375C45.5123 59.1705 45.6733 58.9167 45.7869 58.6136L47.0824 58.9773C46.946 59.4167 46.7169 59.803 46.3949 60.1364C46.0729 60.4659 45.6752 60.7235 45.2017 60.9091C44.7282 61.0909 44.196 61.1818 43.6051 61.1818Z" fill="#505050"/>
<rect x="204" y="36" width="322.38" height="36" fill="white"/>
<line x1="204.5" y1="36" x2="204.5" y2="72" stroke="#E0E7E9"/>
<path d="M224.773 52H223.364C223.28 51.5947 223.134 51.2386 222.926 50.9318C222.722 50.625 222.472 50.3674 222.176 50.1591C221.884 49.947 221.561 49.7879 221.205 49.6818C220.848 49.5758 220.477 49.5227 220.091 49.5227C219.386 49.5227 218.748 49.7008 218.176 50.0568C217.608 50.4129 217.155 50.9375 216.818 51.6307C216.485 52.3239 216.318 53.1742 216.318 54.1818C216.318 55.1894 216.485 56.0398 216.818 56.733C217.155 57.4261 217.608 57.9508 218.176 58.3068C218.748 58.6629 219.386 58.8409 220.091 58.8409C220.477 58.8409 220.848 58.7879 221.205 58.6818C221.561 58.5758 221.884 58.4186 222.176 58.2102C222.472 57.9981 222.722 57.7386 222.926 57.4318C223.134 57.1212 223.28 56.7652 223.364 56.3636H224.773C224.667 56.9583 224.473 57.4905 224.193 57.9602C223.913 58.4299 223.564 58.8295 223.148 59.1591C222.731 59.4848 222.263 59.733 221.744 59.9034C221.229 60.0739 220.678 60.1591 220.091 60.1591C219.098 60.1591 218.216 59.9167 217.443 59.4318C216.67 58.947 216.063 58.2576 215.619 57.3636C215.176 56.4697 214.955 55.4091 214.955 54.1818C214.955 52.9545 215.176 51.8939 215.619 51C216.063 50.1061 216.67 49.4167 217.443 48.9318C218.216 48.447 219.098 48.2045 220.091 48.2045C220.678 48.2045 221.229 48.2898 221.744 48.4602C222.263 48.6307 222.731 48.8807 223.148 49.2102C223.564 49.536 223.913 49.9337 224.193 50.4034C224.473 50.8693 224.667 51.4015 224.773 52ZM228.009 48.3636V60H226.668V48.3636H228.009ZM232.833 60.2045C232.28 60.2045 231.778 60.1004 231.327 59.892C230.877 59.6799 230.519 59.375 230.253 58.9773C229.988 58.5758 229.856 58.0909 229.856 57.5227C229.856 57.0227 229.954 56.6174 230.151 56.3068C230.348 55.9924 230.611 55.7462 230.941 55.5682C231.27 55.3902 231.634 55.2576 232.032 55.1705C232.433 55.0795 232.837 55.0076 233.242 54.9545C233.772 54.8864 234.202 54.8352 234.532 54.8011C234.865 54.7633 235.108 54.7008 235.259 54.6136C235.414 54.5265 235.492 54.375 235.492 54.1591V54.1136C235.492 53.553 235.339 53.1174 235.032 52.8068C234.729 52.4962 234.269 52.3409 233.651 52.3409C233.011 52.3409 232.509 52.4811 232.145 52.7614C231.782 53.0417 231.526 53.3409 231.378 53.6591L230.106 53.2045C230.333 52.6742 230.636 52.2614 231.015 51.9659C231.397 51.6667 231.814 51.4583 232.265 51.3409C232.719 51.2197 233.166 51.1591 233.606 51.1591C233.886 51.1591 234.208 51.1932 234.572 51.2614C234.939 51.3258 235.293 51.4602 235.634 51.6648C235.979 51.8693 236.265 52.178 236.492 52.5909C236.719 53.0038 236.833 53.5568 236.833 54.25V60H235.492V58.8182H235.424C235.333 59.0076 235.181 59.2102 234.969 59.4261C234.757 59.642 234.475 59.8258 234.123 59.9773C233.77 60.1288 233.341 60.2045 232.833 60.2045ZM233.038 59C233.568 59 234.015 58.8958 234.378 58.6875C234.746 58.4792 235.022 58.2102 235.208 57.8807C235.397 57.5511 235.492 57.2045 235.492 56.8409V55.6136C235.435 55.6818 235.31 55.7443 235.117 55.8011C234.928 55.8542 234.708 55.9015 234.458 55.9432C234.212 55.9811 233.971 56.0152 233.736 56.0455C233.505 56.072 233.318 56.0947 233.174 56.1136C232.825 56.1591 232.5 56.233 232.197 56.3352C231.897 56.4337 231.655 56.5833 231.469 56.7841C231.288 56.9811 231.197 57.25 231.197 57.5909C231.197 58.0568 231.369 58.4091 231.714 58.6477C232.062 58.8826 232.503 59 233.038 59ZM245.262 53.2273L244.058 53.5682C243.982 53.3674 243.87 53.1723 243.722 52.983C243.579 52.7898 243.382 52.6307 243.132 52.5057C242.882 52.3807 242.561 52.3182 242.171 52.3182C241.637 52.3182 241.192 52.4413 240.836 52.6875C240.484 52.9299 240.308 53.2386 240.308 53.6136C240.308 53.947 240.429 54.2102 240.671 54.4034C240.914 54.5966 241.293 54.7576 241.808 54.8864L243.103 55.2045C243.883 55.3939 244.465 55.6837 244.847 56.0739C245.23 56.4602 245.421 56.9583 245.421 57.5682C245.421 58.0682 245.277 58.5152 244.989 58.9091C244.705 59.303 244.308 59.6136 243.796 59.8409C243.285 60.0682 242.69 60.1818 242.012 60.1818C241.122 60.1818 240.385 59.9886 239.802 59.6023C239.219 59.2159 238.849 58.6515 238.694 57.9091L239.967 57.5909C240.088 58.0606 240.317 58.4129 240.654 58.6477C240.995 58.8826 241.44 59 241.989 59C242.614 59 243.111 58.8674 243.478 58.6023C243.849 58.3333 244.035 58.0114 244.035 57.6364C244.035 57.3333 243.929 57.0795 243.717 56.875C243.505 56.6667 243.179 56.5114 242.739 56.4091L241.285 56.0682C240.486 55.8788 239.899 55.5852 239.524 55.1875C239.152 54.786 238.967 54.2841 238.967 53.6818C238.967 53.1894 239.105 52.7538 239.382 52.375C239.662 51.9962 240.043 51.6989 240.524 51.483C241.008 51.267 241.558 51.1591 242.171 51.1591C243.035 51.1591 243.713 51.3485 244.205 51.7273C244.702 52.1061 245.054 52.6061 245.262 53.2273ZM253.422 53.2273L252.217 53.5682C252.141 53.3674 252.03 53.1723 251.882 52.983C251.738 52.7898 251.541 52.6307 251.291 52.5057C251.041 52.3807 250.721 52.3182 250.331 52.3182C249.797 52.3182 249.352 52.4413 248.995 52.6875C248.643 52.9299 248.467 53.2386 248.467 53.6136C248.467 53.947 248.588 54.2102 248.831 54.4034C249.073 54.5966 249.452 54.7576 249.967 54.8864L251.263 55.2045C252.043 55.3939 252.624 55.6837 253.007 56.0739C253.389 56.4602 253.581 56.9583 253.581 57.5682C253.581 58.0682 253.437 58.5152 253.149 58.9091C252.865 59.303 252.467 59.6136 251.956 59.8409C251.444 60.0682 250.85 60.1818 250.172 60.1818C249.281 60.1818 248.545 59.9886 247.961 59.6023C247.378 59.2159 247.009 58.6515 246.853 57.9091L248.126 57.5909C248.247 58.0606 248.477 58.4129 248.814 58.6477C249.155 58.8826 249.6 59 250.149 59C250.774 59 251.27 58.8674 251.638 58.6023C252.009 58.3333 252.194 58.0114 252.194 57.6364C252.194 57.3333 252.088 57.0795 251.876 56.875C251.664 56.6667 251.338 56.5114 250.899 56.4091L249.444 56.0682C248.645 55.8788 248.058 55.5852 247.683 55.1875C247.312 54.786 247.126 54.2841 247.126 53.6818C247.126 53.1894 247.264 52.7538 247.541 52.375C247.821 51.9962 248.202 51.6989 248.683 51.483C249.168 51.267 249.717 51.1591 250.331 51.1591C251.194 51.1591 251.872 51.3485 252.365 51.7273C252.861 52.1061 253.213 52.6061 253.422 53.2273ZM255.399 60V51.2727H256.74V60H255.399ZM256.081 49.8182C255.82 49.8182 255.594 49.7292 255.405 49.5511C255.219 49.3731 255.126 49.1591 255.126 48.9091C255.126 48.6591 255.219 48.4451 255.405 48.267C255.594 48.089 255.82 48 256.081 48C256.342 48 256.566 48.089 256.751 48.267C256.941 48.4451 257.036 48.6591 257.036 48.9091C257.036 49.1591 256.941 49.3731 256.751 49.5511C256.566 49.7292 256.342 49.8182 256.081 49.8182ZM262.541 60.1818C261.723 60.1818 261.019 59.9886 260.428 59.6023C259.837 59.2159 259.382 58.6837 259.064 58.0057C258.746 57.3277 258.587 56.553 258.587 55.6818C258.587 54.7955 258.75 54.0133 259.076 53.3352C259.405 52.6534 259.863 52.1212 260.451 51.7386C261.041 51.3523 261.731 51.1591 262.519 51.1591C263.132 51.1591 263.685 51.2727 264.178 51.5C264.67 51.7273 265.074 52.0455 265.388 52.4545C265.702 52.8636 265.898 53.3409 265.973 53.8864H264.632C264.53 53.4886 264.303 53.1364 263.951 52.8295C263.602 52.5189 263.132 52.3636 262.541 52.3636C262.019 52.3636 261.56 52.5 261.166 52.7727C260.776 53.0417 260.471 53.4223 260.252 53.9148C260.036 54.4034 259.928 54.9773 259.928 55.6364C259.928 56.3106 260.034 56.8977 260.246 57.3977C260.462 57.8977 260.765 58.286 261.155 58.5625C261.549 58.839 262.011 58.9773 262.541 58.9773C262.89 58.9773 263.206 58.9167 263.49 58.7955C263.774 58.6742 264.015 58.5 264.212 58.2727C264.409 58.0455 264.549 57.7727 264.632 57.4545H265.973C265.898 57.9697 265.71 58.4337 265.411 58.8466C265.115 59.2557 264.723 59.5814 264.235 59.8239C263.75 60.0625 263.185 60.1818 262.541 60.1818ZM278.215 53.2273L277.011 53.5682C276.935 53.3674 276.823 53.1723 276.676 52.983C276.532 52.7898 276.335 52.6307 276.085 52.5057C275.835 52.3807 275.515 52.3182 275.124 52.3182C274.59 52.3182 274.145 52.4413 273.789 52.6875C273.437 52.9299 273.261 53.2386 273.261 53.6136C273.261 53.947 273.382 54.2102 273.624 54.4034C273.867 54.5966 274.246 54.7576 274.761 54.8864L276.056 55.2045C276.837 55.3939 277.418 55.6837 277.801 56.0739C278.183 56.4602 278.374 56.9583 278.374 57.5682C278.374 58.0682 278.23 58.5152 277.943 58.9091C277.659 59.303 277.261 59.6136 276.749 59.8409C276.238 60.0682 275.643 60.1818 274.965 60.1818C274.075 60.1818 273.338 59.9886 272.755 59.6023C272.172 59.2159 271.802 58.6515 271.647 57.9091L272.92 57.5909C273.041 58.0606 273.27 58.4129 273.607 58.6477C273.948 58.8826 274.393 59 274.943 59C275.568 59 276.064 58.8674 276.431 58.6023C276.802 58.3333 276.988 58.0114 276.988 57.6364C276.988 57.3333 276.882 57.0795 276.67 56.875C276.458 56.6667 276.132 56.5114 275.693 56.4091L274.238 56.0682C273.439 55.8788 272.852 55.5852 272.477 55.1875C272.105 54.786 271.92 54.2841 271.92 53.6818C271.92 53.1894 272.058 52.7538 272.335 52.375C272.615 51.9962 272.996 51.6989 273.477 51.483C273.962 51.267 274.511 51.1591 275.124 51.1591C275.988 51.1591 276.666 51.3485 277.159 51.7273C277.655 52.1061 278.007 52.6061 278.215 53.2273ZM283.988 51.2727V52.4091H279.466V51.2727H283.988ZM280.784 49.1818H282.125V57.5C282.125 57.8788 282.18 58.1629 282.289 58.3523C282.403 58.5379 282.547 58.6629 282.721 58.7273C282.899 58.7879 283.087 58.8182 283.284 58.8182C283.432 58.8182 283.553 58.8106 283.647 58.7955C283.742 58.7765 283.818 58.7614 283.875 58.75L284.147 59.9545C284.057 59.9886 283.93 60.0227 283.767 60.0568C283.604 60.0947 283.397 60.1136 283.147 60.1136C282.769 60.1136 282.397 60.0322 282.034 59.8693C281.674 59.7064 281.375 59.4583 281.136 59.125C280.901 58.7917 280.784 58.3712 280.784 57.8636V49.1818ZM286.669 63.2727C286.442 63.2727 286.239 63.2538 286.061 63.2159C285.883 63.1818 285.76 63.1477 285.692 63.1136L286.033 61.9318C286.358 62.0152 286.646 62.0455 286.896 62.0227C287.146 62 287.368 61.8883 287.561 61.6875C287.758 61.4905 287.938 61.1705 288.101 60.7273L288.351 60.0455L285.124 51.2727H286.578L288.987 58.2273H289.078L291.487 51.2727H292.942L289.237 61.2727C289.071 61.7235 288.864 62.0966 288.618 62.392C288.372 62.6913 288.086 62.9129 287.76 63.0568C287.438 63.2008 287.074 63.2727 286.669 63.2727ZM295.853 48.3636V60H294.512V48.3636H295.853ZM301.768 60.1818C300.927 60.1818 300.201 59.9962 299.591 59.625C298.985 59.25 298.518 58.7273 298.188 58.0568C297.862 57.3826 297.699 56.5985 297.699 55.7045C297.699 54.8106 297.862 54.0227 298.188 53.3409C298.518 52.6553 298.976 52.1212 299.563 51.7386C300.154 51.3523 300.843 51.1591 301.631 51.1591C302.086 51.1591 302.535 51.2348 302.978 51.3864C303.421 51.5379 303.824 51.7841 304.188 52.125C304.552 52.4621 304.841 52.9091 305.057 53.4659C305.273 54.0227 305.381 54.7083 305.381 55.5227V56.0909H298.654V54.9318H304.018C304.018 54.4394 303.919 54 303.722 53.6136C303.529 53.2273 303.252 52.9223 302.893 52.6989C302.537 52.4754 302.116 52.3636 301.631 52.3636C301.097 52.3636 300.635 52.4962 300.245 52.7614C299.859 53.0227 299.561 53.3636 299.353 53.7841C299.145 54.2045 299.04 54.6553 299.04 55.1364V55.9091C299.04 56.5682 299.154 57.1269 299.381 57.5852C299.612 58.0398 299.932 58.3864 300.341 58.625C300.751 58.8598 301.226 58.9773 301.768 58.9773C302.12 58.9773 302.438 58.928 302.722 58.8295C303.01 58.7273 303.258 58.5758 303.466 58.375C303.675 58.1705 303.836 57.9167 303.949 57.6136L305.245 57.9773C305.109 58.4167 304.879 58.803 304.557 59.1364C304.235 59.4659 303.838 59.7235 303.364 59.9091C302.891 60.0909 302.359 60.1818 301.768 60.1818Z" fill="#505050"/>
<line y1="36.5" x2="567" y2="36.5" stroke="#E0E7E9"/>
<rect y="72" width="204" height="36" fill="#EFF2F4"/>
<path d="M20.7727 89H19.3636C19.2803 88.5947 19.1345 88.2386 18.9261 87.9318C18.7216 87.625 18.4716 87.3674 18.1761 87.1591C17.8845 86.947 17.5606 86.7879 17.2045 86.6818C16.8485 86.5758 16.4773 86.5227 16.0909 86.5227C15.3864 86.5227 14.7481 86.7008 14.1761 87.0568C13.608 87.4129 13.1553 87.9375 12.8182 88.6307C12.4848 89.3239 12.3182 90.1742 12.3182 91.1818C12.3182 92.1894 12.4848 93.0398 12.8182 93.733C13.1553 94.4261 13.608 94.9508 14.1761 95.3068C14.7481 95.6629 15.3864 95.8409 16.0909 95.8409C16.4773 95.8409 16.8485 95.7879 17.2045 95.6818C17.5606 95.5758 17.8845 95.4186 18.1761 95.2102C18.4716 94.9981 18.7216 94.7386 18.9261 94.4318C19.1345 94.1212 19.2803 93.7652 19.3636 93.3636H20.7727C20.6667 93.9583 20.4735 94.4905 20.1932 94.9602C19.9129 95.4299 19.5644 95.8295 19.1477 96.1591C18.7311 96.4848 18.2633 96.733 17.7443 96.9034C17.2292 97.0739 16.678 97.1591 16.0909 97.1591C15.0985 97.1591 14.2159 96.9167 13.4432 96.4318C12.6705 95.947 12.0625 95.2576 11.6193 94.3636C11.1761 93.4697 10.9545 92.4091 10.9545 91.1818C10.9545 89.9545 11.1761 88.8939 11.6193 88C12.0625 87.1061 12.6705 86.4167 13.4432 85.9318C14.2159 85.447 15.0985 85.2045 16.0909 85.2045C16.678 85.2045 17.2292 85.2898 17.7443 85.4602C18.2633 85.6307 18.7311 85.8807 19.1477 86.2102C19.5644 86.536 19.9129 86.9337 20.1932 87.4034C20.4735 87.8693 20.6667 88.4015 20.7727 89ZM26.527 97.1818C25.6861 97.1818 24.9607 96.9962 24.3509 96.625C23.7448 96.25 23.277 95.7273 22.9474 95.0568C22.6217 94.3826 22.4588 93.5985 22.4588 92.7045C22.4588 91.8106 22.6217 91.0227 22.9474 90.3409C23.277 89.6553 23.7353 89.1212 24.3224 88.7386C24.9134 88.3523 25.6027 88.1591 26.3906 88.1591C26.8452 88.1591 27.294 88.2348 27.7372 88.3864C28.1804 88.5379 28.5838 88.7841 28.9474 89.125C29.3111 89.4621 29.6009 89.9091 29.8168 90.4659C30.0327 91.0227 30.1406 91.7083 30.1406 92.5227V93.0909H23.4134V91.9318H28.777C28.777 91.4394 28.6785 91 28.4815 90.6136C28.2884 90.2273 28.0118 89.9223 27.652 89.6989C27.2959 89.4754 26.8755 89.3636 26.3906 89.3636C25.8565 89.3636 25.3944 89.4962 25.0043 89.7614C24.6179 90.0227 24.3205 90.3636 24.1122 90.7841C23.9039 91.2045 23.7997 91.6553 23.7997 92.1364V92.9091C23.7997 93.5682 23.9134 94.1269 24.1406 94.5852C24.3717 95.0398 24.6918 95.3864 25.1009 95.625C25.5099 95.8598 25.9853 95.9773 26.527 95.9773C26.8793 95.9773 27.1974 95.928 27.4815 95.8295C27.7694 95.7273 28.0175 95.5758 28.2259 95.375C28.4342 95.1705 28.5952 94.9167 28.7088 94.6136L30.0043 94.9773C29.8679 95.4167 29.6387 95.803 29.3168 96.1364C28.9948 96.4659 28.5971 96.7235 28.1236 96.9091C27.6501 97.0909 27.1179 97.1818 26.527 97.1818ZM32.1804 97V88.2727H33.4759V89.5909H33.5668C33.7259 89.1591 34.0137 88.8087 34.4304 88.5398C34.8471 88.2708 35.3168 88.1364 35.8395 88.1364C35.938 88.1364 36.0611 88.1383 36.2088 88.142C36.3565 88.1458 36.4683 88.1515 36.544 88.1591V89.5227C36.4986 89.5114 36.3944 89.4943 36.2315 89.4716C36.0724 89.4451 35.9039 89.4318 35.7259 89.4318C35.3016 89.4318 34.9228 89.5208 34.5895 89.6989C34.2599 89.8731 33.9986 90.1155 33.8054 90.4261C33.616 90.733 33.5213 91.0833 33.5213 91.4773V97H32.1804ZM42.4759 88.2727V89.4091H37.9531V88.2727H42.4759ZM39.2713 86.1818H40.6122V94.5C40.6122 94.8788 40.6671 95.1629 40.777 95.3523C40.8906 95.5379 41.0346 95.6629 41.2088 95.7273C41.3868 95.7879 41.5743 95.8182 41.7713 95.8182C41.919 95.8182 42.0402 95.8106 42.1349 95.7955C42.2296 95.7765 42.3054 95.7614 42.3622 95.75L42.6349 96.9545C42.544 96.9886 42.4171 97.0227 42.2543 97.0568C42.0914 97.0947 41.8849 97.1136 41.6349 97.1136C41.2562 97.1136 40.8849 97.0322 40.5213 96.8693C40.1615 96.7064 39.8622 96.4583 39.6236 96.125C39.3887 95.7917 39.2713 95.3712 39.2713 94.8636V86.1818ZM44.4929 97V88.2727H45.8338V97H44.4929ZM45.1747 86.8182C44.9134 86.8182 44.688 86.7292 44.4986 86.5511C44.313 86.3731 44.2202 86.1591 44.2202 85.9091C44.2202 85.6591 44.313 85.4451 44.4986 85.267C44.688 85.089 44.9134 85 45.1747 85C45.4361 85 45.6596 85.089 45.8452 85.267C46.0346 85.4451 46.1293 85.6591 46.1293 85.9091C46.1293 86.1591 46.0346 86.3731 45.8452 86.5511C45.6596 86.7292 45.4361 86.8182 45.1747 86.8182ZM52.1761 88.2727V89.4091H47.4716V88.2727H52.1761ZM48.8807 97V87.0682C48.8807 86.5682 48.9981 86.1515 49.233 85.8182C49.4678 85.4848 49.7727 85.2348 50.1477 85.0682C50.5227 84.9015 50.9186 84.8182 51.3352 84.8182C51.6648 84.8182 51.9337 84.8447 52.142 84.8977C52.3504 84.9508 52.5057 85 52.608 85.0455L52.2216 86.2045C52.1534 86.1818 52.0587 86.1534 51.9375 86.1193C51.8201 86.0852 51.6648 86.0682 51.4716 86.0682C51.0284 86.0682 50.7083 86.1799 50.5114 86.4034C50.3182 86.6269 50.2216 86.9545 50.2216 87.3864V97H48.8807ZM54.0554 97V88.2727H55.3963V97H54.0554ZM54.7372 86.8182C54.4759 86.8182 54.2505 86.7292 54.0611 86.5511C53.8755 86.3731 53.7827 86.1591 53.7827 85.9091C53.7827 85.6591 53.8755 85.4451 54.0611 85.267C54.2505 85.089 54.4759 85 54.7372 85C54.9986 85 55.2221 85.089 55.4077 85.267C55.5971 85.4451 55.6918 85.6591 55.6918 85.9091C55.6918 86.1591 55.5971 86.3731 55.4077 86.5511C55.2221 86.7292 54.9986 86.8182 54.7372 86.8182ZM61.3977 97.1818C60.5795 97.1818 59.875 96.9886 59.2841 96.6023C58.6932 96.2159 58.2386 95.6837 57.9205 95.0057C57.6023 94.3277 57.4432 93.553 57.4432 92.6818C57.4432 91.7955 57.6061 91.0133 57.9318 90.3352C58.2614 89.6534 58.7197 89.1212 59.3068 88.7386C59.8977 88.3523 60.5871 88.1591 61.375 88.1591C61.9886 88.1591 62.5417 88.2727 63.0341 88.5C63.5265 88.7273 63.9299 89.0455 64.2443 89.4545C64.5587 89.8636 64.7538 90.3409 64.8295 90.8864H63.4886C63.3864 90.4886 63.1591 90.1364 62.8068 89.8295C62.4583 89.5189 61.9886 89.3636 61.3977 89.3636C60.875 89.3636 60.4167 89.5 60.0227 89.7727C59.6326 90.0417 59.3277 90.4223 59.108 90.9148C58.892 91.4034 58.7841 91.9773 58.7841 92.6364C58.7841 93.3106 58.8902 93.8977 59.1023 94.3977C59.3182 94.8977 59.6212 95.286 60.0114 95.5625C60.4053 95.839 60.8674 95.9773 61.3977 95.9773C61.7462 95.9773 62.0625 95.9167 62.3466 95.7955C62.6307 95.6742 62.8712 95.5 63.0682 95.2727C63.2652 95.0455 63.4053 94.7727 63.4886 94.4545H64.8295C64.7538 94.9697 64.5663 95.4337 64.267 95.8466C63.9716 96.2557 63.5795 96.5814 63.0909 96.8239C62.6061 97.0625 62.0417 97.1818 61.3977 97.1818ZM69.358 97.2045C68.8049 97.2045 68.303 97.1004 67.8523 96.892C67.4015 96.6799 67.0436 96.375 66.7784 95.9773C66.5133 95.5758 66.3807 95.0909 66.3807 94.5227C66.3807 94.0227 66.4792 93.6174 66.6761 93.3068C66.8731 92.9924 67.1364 92.7462 67.4659 92.5682C67.7955 92.3902 68.1591 92.2576 68.5568 92.1705C68.9583 92.0795 69.3617 92.0076 69.767 91.9545C70.2973 91.8864 70.7273 91.8352 71.0568 91.8011C71.3902 91.7633 71.6326 91.7008 71.7841 91.6136C71.9394 91.5265 72.017 91.375 72.017 91.1591V91.1136C72.017 90.553 71.8636 90.1174 71.5568 89.8068C71.2538 89.4962 70.7936 89.3409 70.1761 89.3409C69.536 89.3409 69.0341 89.4811 68.6705 89.7614C68.3068 90.0417 68.0511 90.3409 67.9034 90.6591L66.6307 90.2045C66.858 89.6742 67.161 89.2614 67.5398 88.9659C67.9223 88.6667 68.339 88.4583 68.7898 88.3409C69.2443 88.2197 69.6913 88.1591 70.1307 88.1591C70.411 88.1591 70.733 88.1932 71.0966 88.2614C71.464 88.3258 71.8182 88.4602 72.1591 88.6648C72.5038 88.8693 72.7898 89.178 73.017 89.5909C73.2443 90.0038 73.358 90.5568 73.358 91.25V97H72.017V95.8182H71.9489C71.858 96.0076 71.7064 96.2102 71.4943 96.4261C71.2822 96.642 71 96.8258 70.6477 96.9773C70.2955 97.1288 69.8655 97.2045 69.358 97.2045ZM69.5625 96C70.0928 96 70.5398 95.8958 70.9034 95.6875C71.2708 95.4792 71.5473 95.2102 71.733 94.8807C71.9223 94.5511 72.017 94.2045 72.017 93.8409V92.6136C71.9602 92.6818 71.8352 92.7443 71.642 92.8011C71.4527 92.8542 71.233 92.9015 70.983 92.9432C70.7367 92.9811 70.4962 93.0152 70.2614 93.0455C70.0303 93.072 69.8428 93.0947 69.6989 93.1136C69.3504 93.1591 69.0246 93.233 68.7216 93.3352C68.4223 93.4337 68.1799 93.5833 67.9943 93.7841C67.8125 93.9811 67.7216 94.25 67.7216 94.5909C67.7216 95.0568 67.8939 95.4091 68.2386 95.6477C68.5871 95.8826 69.0284 96 69.5625 96ZM79.6009 88.2727V89.4091H75.0781V88.2727H79.6009ZM76.3963 86.1818H77.7372V94.5C77.7372 94.8788 77.7921 95.1629 77.902 95.3523C78.0156 95.5379 78.1596 95.6629 78.3338 95.7273C78.5118 95.7879 78.6993 95.8182 78.8963 95.8182C79.044 95.8182 79.1652 95.8106 79.2599 95.7955C79.3546 95.7765 79.4304 95.7614 79.4872 95.75L79.7599 96.9545C79.669 96.9886 79.5421 97.0227 79.3793 97.0568C79.2164 97.0947 79.0099 97.1136 78.7599 97.1136C78.3812 97.1136 78.0099 97.0322 77.6463 96.8693C77.2865 96.7064 76.9872 96.4583 76.7486 96.125C76.5137 95.7917 76.3963 95.3712 76.3963 94.8636V86.1818ZM85.1832 97.1818C84.3423 97.1818 83.617 96.9962 83.0071 96.625C82.401 96.25 81.9332 95.7273 81.6037 95.0568C81.2779 94.3826 81.1151 93.5985 81.1151 92.7045C81.1151 91.8106 81.2779 91.0227 81.6037 90.3409C81.9332 89.6553 82.3916 89.1212 82.9787 88.7386C83.5696 88.3523 84.259 88.1591 85.0469 88.1591C85.5014 88.1591 85.9503 88.2348 86.3935 88.3864C86.8366 88.5379 87.2401 88.7841 87.6037 89.125C87.9673 89.4621 88.2571 89.9091 88.473 90.4659C88.6889 91.0227 88.7969 91.7083 88.7969 92.5227V93.0909H82.0696V91.9318H87.4332C87.4332 91.4394 87.3348 91 87.1378 90.6136C86.9446 90.2273 86.6681 89.9223 86.3082 89.6989C85.9522 89.4754 85.5317 89.3636 85.0469 89.3636C84.5128 89.3636 84.0507 89.4962 83.6605 89.7614C83.2741 90.0227 82.9768 90.3636 82.7685 90.7841C82.5601 91.2045 82.456 91.6553 82.456 92.1364V92.9091C82.456 93.5682 82.5696 94.1269 82.7969 94.5852C83.0279 95.0398 83.348 95.3864 83.7571 95.625C84.1662 95.8598 84.6416 95.9773 85.1832 95.9773C85.5355 95.9773 85.8537 95.928 86.1378 95.8295C86.4257 95.7273 86.6738 95.5758 86.8821 95.375C87.0904 95.1705 87.2514 94.9167 87.3651 94.6136L88.6605 94.9773C88.5241 95.4167 88.295 95.803 87.973 96.1364C87.651 96.4659 87.2533 96.7235 86.7798 96.9091C86.3063 97.0909 85.7741 97.1818 85.1832 97.1818Z" fill="#505050"/>
<rect x="204" y="72" width="322.38" height="36" fill="white"/>
<line x1="204.5" y1="72" x2="204.5" y2="108" stroke="#E0E7E9"/>
<path d="M216.818 84.3636V96H215.409V84.3636H216.818ZM225.807 87.2727C225.739 86.697 225.462 86.25 224.978 85.9318C224.493 85.6136 223.898 85.4545 223.193 85.4545C222.678 85.4545 222.228 85.5379 221.841 85.7045C221.459 85.8712 221.159 86.1004 220.943 86.392C220.731 86.6837 220.625 87.0152 220.625 87.3864C220.625 87.697 220.699 87.964 220.847 88.1875C220.998 88.4072 221.192 88.5909 221.426 88.7386C221.661 88.8826 221.907 89.0019 222.165 89.0966C222.423 89.1875 222.659 89.2614 222.875 89.3182L224.057 89.6364C224.36 89.7159 224.697 89.8258 225.068 89.9659C225.443 90.1061 225.801 90.2973 226.142 90.5398C226.487 90.7784 226.771 91.0852 226.995 91.4602C227.218 91.8352 227.33 92.2955 227.33 92.8409C227.33 93.4697 227.165 94.0379 226.836 94.5455C226.51 95.053 226.032 95.4564 225.404 95.7557C224.779 96.0549 224.019 96.2045 223.125 96.2045C222.292 96.2045 221.57 96.0701 220.961 95.8011C220.354 95.5322 219.877 95.1572 219.529 94.6761C219.184 94.1951 218.989 93.6364 218.943 93H220.398C220.436 93.4394 220.584 93.803 220.841 94.0909C221.103 94.375 221.432 94.5871 221.83 94.7273C222.231 94.8636 222.663 94.9318 223.125 94.9318C223.663 94.9318 224.146 94.8447 224.574 94.6705C225.002 94.4924 225.341 94.2462 225.591 93.9318C225.841 93.6136 225.966 93.2424 225.966 92.8182C225.966 92.4318 225.858 92.1174 225.642 91.875C225.426 91.6326 225.142 91.4356 224.79 91.2841C224.438 91.1326 224.057 91 223.648 90.8864L222.216 90.4773C221.307 90.2159 220.587 89.8428 220.057 89.358C219.527 88.8731 219.262 88.2386 219.262 87.4545C219.262 86.803 219.438 86.2348 219.79 85.75C220.146 85.2614 220.623 84.8826 221.222 84.6136C221.824 84.3409 222.496 84.2045 223.239 84.2045C223.989 84.2045 224.656 84.339 225.239 84.608C225.822 84.8731 226.284 85.2367 226.625 85.6989C226.97 86.161 227.152 86.6856 227.171 87.2727H225.807ZM239.265 90.1818C239.265 91.4091 239.043 92.4697 238.6 93.3636C238.157 94.2576 237.549 94.947 236.776 95.4318C236.003 95.9167 235.121 96.1591 234.128 96.1591C233.136 96.1591 232.253 95.9167 231.481 95.4318C230.708 94.947 230.1 94.2576 229.657 93.3636C229.214 92.4697 228.992 91.4091 228.992 90.1818C228.992 88.9545 229.214 87.8939 229.657 87C230.1 86.1061 230.708 85.4167 231.481 84.9318C232.253 84.447 233.136 84.2045 234.128 84.2045C235.121 84.2045 236.003 84.447 236.776 84.9318C237.549 85.4167 238.157 86.1061 238.6 87C239.043 87.8939 239.265 88.9545 239.265 90.1818ZM237.901 90.1818C237.901 89.1742 237.733 88.3239 237.395 87.6307C237.062 86.9375 236.609 86.4129 236.038 86.0568C235.469 85.7008 234.833 85.5227 234.128 85.5227C233.424 85.5227 232.786 85.7008 232.214 86.0568C231.645 86.4129 231.193 86.9375 230.856 87.6307C230.522 88.3239 230.356 89.1742 230.356 90.1818C230.356 91.1894 230.522 92.0398 230.856 92.733C231.193 93.4261 231.645 93.9508 232.214 94.3068C232.786 94.6629 233.424 94.8409 234.128 94.8409C234.833 94.8409 235.469 94.6629 236.038 94.3068C236.609 93.9508 237.062 93.4261 237.395 92.733C237.733 92.0398 237.901 91.1894 237.901 90.1818ZM246.252 89.5568V90.8068H241.161V89.5568H246.252ZM252.116 96.1591C251.336 96.1591 250.646 96.0208 250.048 95.7443C249.453 95.464 248.989 95.0795 248.656 94.5909C248.323 94.0985 248.158 93.5379 248.162 92.9091C248.158 92.4167 248.254 91.9621 248.451 91.5455C248.648 91.125 248.917 90.7746 249.258 90.4943C249.603 90.2102 249.987 90.0303 250.412 89.9545V89.8864C249.855 89.7424 249.412 89.4299 249.082 88.9489C248.753 88.464 248.59 87.9129 248.593 87.2955C248.59 86.7045 248.739 86.1761 249.042 85.7102C249.345 85.2443 249.762 84.8769 250.292 84.608C250.826 84.339 251.434 84.2045 252.116 84.2045C252.79 84.2045 253.393 84.339 253.923 84.608C254.453 84.8769 254.87 85.2443 255.173 85.7102C255.48 86.1761 255.635 86.7045 255.639 87.2955C255.635 87.9129 255.467 88.464 255.133 88.9489C254.804 89.4299 254.366 89.7424 253.821 89.8864V89.9545C254.241 90.0303 254.62 90.2102 254.957 90.4943C255.294 90.7746 255.563 91.125 255.764 91.5455C255.965 91.9621 256.067 92.4167 256.071 92.9091C256.067 93.5379 255.896 94.0985 255.559 94.5909C255.226 95.0795 254.762 95.464 254.167 95.7443C253.576 96.0208 252.893 96.1591 252.116 96.1591ZM252.116 94.9091C252.643 94.9091 253.097 94.8239 253.48 94.6534C253.862 94.483 254.158 94.2424 254.366 93.9318C254.575 93.6212 254.681 93.2576 254.684 92.8409C254.681 92.4015 254.567 92.0133 254.343 91.6761C254.12 91.339 253.815 91.0739 253.429 90.8807C253.046 90.6875 252.609 90.5909 252.116 90.5909C251.62 90.5909 251.177 90.6875 250.787 90.8807C250.4 91.0739 250.095 91.339 249.872 91.6761C249.652 92.0133 249.544 92.4015 249.548 92.8409C249.544 93.2576 249.645 93.6212 249.849 93.9318C250.057 94.2424 250.355 94.483 250.741 94.6534C251.128 94.8239 251.586 94.9091 252.116 94.9091ZM252.116 89.3864C252.533 89.3864 252.902 89.303 253.224 89.1364C253.55 88.9697 253.806 88.7367 253.991 88.4375C254.177 88.1383 254.271 87.7879 254.275 87.3864C254.271 86.9924 254.179 86.6496 253.997 86.358C253.815 86.0625 253.563 85.8352 253.241 85.6761C252.919 85.5133 252.544 85.4318 252.116 85.4318C251.681 85.4318 251.3 85.5133 250.974 85.6761C250.648 85.8352 250.396 86.0625 250.218 86.358C250.04 86.6496 249.953 86.9924 249.957 87.3864C249.953 87.7879 250.042 88.1383 250.224 88.4375C250.41 88.7367 250.665 88.9697 250.991 89.1364C251.317 89.303 251.692 89.3864 252.116 89.3864ZM261.753 84.2045C262.23 84.2083 262.707 84.2992 263.185 84.4773C263.662 84.6553 264.098 84.9508 264.491 85.3636C264.885 85.7727 265.202 86.3314 265.44 87.0398C265.679 87.7481 265.798 88.6364 265.798 89.7045C265.798 90.7386 265.7 91.6572 265.503 92.4602C265.31 93.2595 265.029 93.9337 264.662 94.483C264.298 95.0322 263.855 95.4489 263.332 95.733C262.813 96.017 262.226 96.1591 261.571 96.1591C260.92 96.1591 260.338 96.0303 259.827 95.7727C259.319 95.5114 258.902 95.1496 258.577 94.6875C258.255 94.2216 258.048 93.6818 257.957 93.0682H259.344C259.469 93.6023 259.717 94.0436 260.088 94.392C260.463 94.7367 260.957 94.9091 261.571 94.9091C262.469 94.9091 263.177 94.517 263.696 93.733C264.219 92.9489 264.48 91.8409 264.48 90.4091H264.389C264.177 90.7273 263.925 91.0019 263.634 91.233C263.342 91.464 263.018 91.642 262.662 91.767C262.306 91.892 261.927 91.9545 261.526 91.9545C260.859 91.9545 260.247 91.7898 259.69 91.4602C259.137 91.1269 258.694 90.6705 258.361 90.0909C258.031 89.5076 257.866 88.8409 257.866 88.0909C257.866 87.3788 258.026 86.7273 258.344 86.1364C258.666 85.5417 259.116 85.0682 259.696 84.7159C260.279 84.3636 260.965 84.1932 261.753 84.2045ZM261.753 85.4545C261.276 85.4545 260.846 85.5739 260.463 85.8125C260.084 86.0473 259.783 86.3655 259.56 86.767C259.34 87.1648 259.23 87.6061 259.23 88.0909C259.23 88.5758 259.336 89.017 259.548 89.4148C259.764 89.8087 260.058 90.1231 260.429 90.358C260.804 90.589 261.23 90.7045 261.707 90.7045C262.067 90.7045 262.402 90.6345 262.713 90.4943C263.024 90.3504 263.295 90.1553 263.526 89.9091C263.76 89.6591 263.944 89.3769 264.077 89.0625C264.209 88.7443 264.276 88.4129 264.276 88.0682C264.276 87.6136 264.166 87.1875 263.946 86.7898C263.73 86.392 263.431 86.0701 263.048 85.8239C262.67 85.5777 262.238 85.4545 261.753 85.4545ZM271.56 96.1591C270.78 96.1591 270.09 96.0208 269.492 95.7443C268.897 95.464 268.433 95.0795 268.1 94.5909C267.766 94.0985 267.602 93.5379 267.605 92.9091C267.602 92.4167 267.698 91.9621 267.895 91.5455C268.092 91.125 268.361 90.7746 268.702 90.4943C269.047 90.2102 269.431 90.0303 269.855 89.9545V89.8864C269.299 89.7424 268.855 89.4299 268.526 88.9489C268.196 88.464 268.033 87.9129 268.037 87.2955C268.033 86.7045 268.183 86.1761 268.486 85.7102C268.789 85.2443 269.206 84.8769 269.736 84.608C270.27 84.339 270.878 84.2045 271.56 84.2045C272.234 84.2045 272.836 84.339 273.367 84.608C273.897 84.8769 274.314 85.2443 274.617 85.7102C274.924 86.1761 275.079 86.7045 275.083 87.2955C275.079 87.9129 274.91 88.464 274.577 88.9489C274.247 89.4299 273.81 89.7424 273.264 89.8864V89.9545C273.685 90.0303 274.064 90.2102 274.401 90.4943C274.738 90.7746 275.007 91.125 275.208 91.5455C275.408 91.9621 275.511 92.4167 275.514 92.9091C275.511 93.5379 275.34 94.0985 275.003 94.5909C274.67 95.0795 274.206 95.464 273.611 95.7443C273.02 96.0208 272.336 96.1591 271.56 96.1591ZM271.56 94.9091C272.086 94.9091 272.541 94.8239 272.924 94.6534C273.306 94.483 273.602 94.2424 273.81 93.9318C274.018 93.6212 274.124 93.2576 274.128 92.8409C274.124 92.4015 274.011 92.0133 273.787 91.6761C273.564 91.339 273.259 91.0739 272.872 90.8807C272.49 90.6875 272.052 90.5909 271.56 90.5909C271.064 90.5909 270.621 90.6875 270.23 90.8807C269.844 91.0739 269.539 91.339 269.316 91.6761C269.096 92.0133 268.988 92.4015 268.992 92.8409C268.988 93.2576 269.088 93.6212 269.293 93.9318C269.501 94.2424 269.799 94.483 270.185 94.6534C270.571 94.8239 271.03 94.9091 271.56 94.9091ZM271.56 89.3864C271.977 89.3864 272.346 89.303 272.668 89.1364C272.994 88.9697 273.249 88.7367 273.435 88.4375C273.621 88.1383 273.715 87.7879 273.719 87.3864C273.715 86.9924 273.622 86.6496 273.441 86.358C273.259 86.0625 273.007 85.8352 272.685 85.6761C272.363 85.5133 271.988 85.4318 271.56 85.4318C271.124 85.4318 270.744 85.5133 270.418 85.6761C270.092 85.8352 269.84 86.0625 269.662 86.358C269.484 86.6496 269.397 86.9924 269.401 87.3864C269.397 87.7879 269.486 88.1383 269.668 88.4375C269.854 88.7367 270.109 88.9697 270.435 89.1364C270.761 89.303 271.136 89.3864 271.56 89.3864ZM281.197 84.2045C281.674 84.2083 282.151 84.2992 282.628 84.4773C283.106 84.6553 283.541 84.9508 283.935 85.3636C284.329 85.7727 284.645 86.3314 284.884 87.0398C285.123 87.7481 285.242 88.6364 285.242 89.7045C285.242 90.7386 285.144 91.6572 284.947 92.4602C284.753 93.2595 284.473 93.9337 284.106 94.483C283.742 95.0322 283.299 95.4489 282.776 95.733C282.257 96.017 281.67 96.1591 281.015 96.1591C280.363 96.1591 279.782 96.0303 279.27 95.7727C278.763 95.5114 278.346 95.1496 278.02 94.6875C277.698 94.2216 277.492 93.6818 277.401 93.0682H278.787C278.912 93.6023 279.161 94.0436 279.532 94.392C279.907 94.7367 280.401 94.9091 281.015 94.9091C281.912 94.9091 282.621 94.517 283.14 93.733C283.662 92.9489 283.924 91.8409 283.924 90.4091H283.833C283.621 90.7273 283.369 91.0019 283.077 91.233C282.786 91.464 282.462 91.642 282.106 91.767C281.75 91.892 281.371 91.9545 280.969 91.9545C280.303 91.9545 279.691 91.7898 279.134 91.4602C278.581 91.1269 278.138 90.6705 277.805 90.0909C277.475 89.5076 277.31 88.8409 277.31 88.0909C277.31 87.3788 277.469 86.7273 277.787 86.1364C278.109 85.5417 278.56 85.0682 279.14 84.7159C279.723 84.3636 280.409 84.1932 281.197 84.2045ZM281.197 85.4545C280.719 85.4545 280.289 85.5739 279.907 85.8125C279.528 86.0473 279.227 86.3655 279.003 86.767C278.784 87.1648 278.674 87.6061 278.674 88.0909C278.674 88.5758 278.78 89.017 278.992 89.4148C279.208 89.8087 279.502 90.1231 279.873 90.358C280.248 90.589 280.674 90.7045 281.151 90.7045C281.511 90.7045 281.846 90.6345 282.157 90.4943C282.467 90.3504 282.738 90.1553 282.969 89.9091C283.204 89.6591 283.388 89.3769 283.52 89.0625C283.653 88.7443 283.719 88.4129 283.719 88.0682C283.719 87.6136 283.609 87.1875 283.39 86.7898C283.174 86.392 282.875 86.0701 282.492 85.8239C282.113 85.5777 281.681 85.4545 281.197 85.4545ZM287.276 96V94.9773L291.117 90.7727C291.568 90.2803 291.939 89.8523 292.231 89.4886C292.523 89.1212 292.739 88.7765 292.879 88.4545C293.023 88.1288 293.095 87.7879 293.095 87.4318C293.095 87.0227 292.996 86.6686 292.799 86.3693C292.606 86.0701 292.341 85.839 292.004 85.6761C291.667 85.5133 291.288 85.4318 290.867 85.4318C290.42 85.4318 290.03 85.5246 289.697 85.7102C289.367 85.892 289.112 86.1477 288.93 86.4773C288.752 86.8068 288.663 87.1932 288.663 87.6364H287.322C287.322 86.9545 287.479 86.3561 287.793 85.8409C288.108 85.3258 288.536 84.9242 289.078 84.6364C289.623 84.3485 290.235 84.2045 290.913 84.2045C291.595 84.2045 292.199 84.3485 292.725 84.6364C293.252 84.9242 293.665 85.3125 293.964 85.8011C294.263 86.2898 294.413 86.8333 294.413 87.4318C294.413 87.8598 294.335 88.2784 294.18 88.6875C294.028 89.0928 293.763 89.5455 293.384 90.0455C293.009 90.5417 292.489 91.1477 291.822 91.8636L289.208 94.6591V94.75H294.617V96H287.276ZM300.855 84.3636V96H299.446V85.8409H299.378L296.537 87.7273V86.2955L299.446 84.3636H300.855ZM304.001 96V94.9773L307.842 90.7727C308.293 90.2803 308.664 89.8523 308.956 89.4886C309.248 89.1212 309.464 88.7765 309.604 88.4545C309.748 88.1288 309.82 87.7879 309.82 87.4318C309.82 87.0227 309.721 86.6686 309.524 86.3693C309.331 86.0701 309.066 85.839 308.729 85.6761C308.392 85.5133 308.013 85.4318 307.592 85.4318C307.145 85.4318 306.755 85.5246 306.422 85.7102C306.092 85.892 305.837 86.1477 305.655 86.4773C305.477 86.8068 305.388 87.1932 305.388 87.6364H304.047C304.047 86.9545 304.204 86.3561 304.518 85.8409C304.833 85.3258 305.261 84.9242 305.803 84.6364C306.348 84.3485 306.96 84.2045 307.638 84.2045C308.32 84.2045 308.924 84.3485 309.45 84.6364C309.977 84.9242 310.39 85.3125 310.689 85.8011C310.988 86.2898 311.138 86.8333 311.138 87.4318C311.138 87.8598 311.06 88.2784 310.905 88.6875C310.753 89.0928 310.488 89.5455 310.109 90.0455C309.734 90.5417 309.214 91.1477 308.547 91.8636L305.933 94.6591V94.75H311.342V96H304.001ZM317.58 84.3636V96H316.171V85.8409H316.103L313.262 87.7273V86.2955L316.171 84.3636H317.58ZM320.726 96V94.9773L324.567 90.7727C325.018 90.2803 325.389 89.8523 325.681 89.4886C325.973 89.1212 326.189 88.7765 326.329 88.4545C326.473 88.1288 326.545 87.7879 326.545 87.4318C326.545 87.0227 326.446 86.6686 326.249 86.3693C326.056 86.0701 325.791 85.839 325.454 85.6761C325.117 85.5133 324.738 85.4318 324.317 85.4318C323.87 85.4318 323.48 85.5246 323.147 85.7102C322.817 85.892 322.562 86.1477 322.38 86.4773C322.202 86.8068 322.113 87.1932 322.113 87.6364H320.772C320.772 86.9545 320.929 86.3561 321.243 85.8409C321.558 85.3258 321.986 84.9242 322.528 84.6364C323.073 84.3485 323.685 84.2045 324.363 84.2045C325.045 84.2045 325.649 84.3485 326.175 84.6364C326.702 84.9242 327.115 85.3125 327.414 85.8011C327.713 86.2898 327.863 86.8333 327.863 87.4318C327.863 87.8598 327.785 88.2784 327.63 88.6875C327.478 89.0928 327.213 89.5455 326.834 90.0455C326.459 90.5417 325.939 91.1477 325.272 91.8636L322.658 94.6591V94.75H328.067V96H320.726Z" fill="#505050"/>
<line y1="72.5" x2="567" y2="72.5" stroke="#E0E7E9"/>
<rect y="108" width="204" height="36" fill="#EFF2F4"/>
<path d="M17.7727 124.273C17.7045 123.697 17.428 123.25 16.9432 122.932C16.4583 122.614 15.8636 122.455 15.1591 122.455C14.6439 122.455 14.1932 122.538 13.8068 122.705C13.4242 122.871 13.125 123.1 12.9091 123.392C12.697 123.684 12.5909 124.015 12.5909 124.386C12.5909 124.697 12.6648 124.964 12.8125 125.188C12.964 125.407 13.1572 125.591 13.392 125.739C13.6269 125.883 13.8731 126.002 14.1307 126.097C14.3883 126.187 14.625 126.261 14.8409 126.318L16.0227 126.636C16.3258 126.716 16.6629 126.826 17.0341 126.966C17.4091 127.106 17.767 127.297 18.108 127.54C18.4527 127.778 18.7367 128.085 18.9602 128.46C19.1837 128.835 19.2955 129.295 19.2955 129.841C19.2955 130.47 19.1307 131.038 18.8011 131.545C18.4754 132.053 17.9981 132.456 17.3693 132.756C16.7443 133.055 15.9848 133.205 15.0909 133.205C14.2576 133.205 13.536 133.07 12.9261 132.801C12.3201 132.532 11.8428 132.157 11.4943 131.676C11.1496 131.195 10.9545 130.636 10.9091 130H12.3636C12.4015 130.439 12.5492 130.803 12.8068 131.091C13.0682 131.375 13.3977 131.587 13.7955 131.727C14.197 131.864 14.6288 131.932 15.0909 131.932C15.6288 131.932 16.1117 131.845 16.5398 131.67C16.9678 131.492 17.3068 131.246 17.5568 130.932C17.8068 130.614 17.9318 130.242 17.9318 129.818C17.9318 129.432 17.8239 129.117 17.608 128.875C17.392 128.633 17.108 128.436 16.7557 128.284C16.4034 128.133 16.0227 128 15.6136 127.886L14.1818 127.477C13.2727 127.216 12.553 126.843 12.0227 126.358C11.4924 125.873 11.2273 125.239 11.2273 124.455C11.2273 123.803 11.4034 123.235 11.7557 122.75C12.1117 122.261 12.589 121.883 13.1875 121.614C13.7898 121.341 14.4621 121.205 15.2045 121.205C15.9545 121.205 16.6212 121.339 17.2045 121.608C17.7879 121.873 18.25 122.237 18.5909 122.699C18.9356 123.161 19.1174 123.686 19.1364 124.273H17.7727ZM21.4304 133V124.273H22.7713V133H21.4304ZM22.1122 122.818C21.8509 122.818 21.6255 122.729 21.4361 122.551C21.2505 122.373 21.1577 122.159 21.1577 121.909C21.1577 121.659 21.2505 121.445 21.4361 121.267C21.6255 121.089 21.8509 121 22.1122 121C22.3736 121 22.5971 121.089 22.7827 121.267C22.9721 121.445 23.0668 121.659 23.0668 121.909C23.0668 122.159 22.9721 122.373 22.7827 122.551C22.5971 122.729 22.3736 122.818 22.1122 122.818ZM24.9773 133V131.977L29.9318 125.614V125.523H25.1364V124.273H31.6591V125.341L26.8409 131.659V131.75H31.8182V133H24.9773ZM37.2926 133.182C36.4517 133.182 35.7263 132.996 35.1165 132.625C34.5104 132.25 34.0426 131.727 33.7131 131.057C33.3873 130.383 33.2244 129.598 33.2244 128.705C33.2244 127.811 33.3873 127.023 33.7131 126.341C34.0426 125.655 34.5009 125.121 35.0881 124.739C35.679 124.352 36.3684 124.159 37.1562 124.159C37.6108 124.159 38.0597 124.235 38.5028 124.386C38.946 124.538 39.3494 124.784 39.7131 125.125C40.0767 125.462 40.3665 125.909 40.5824 126.466C40.7983 127.023 40.9062 127.708 40.9062 128.523V129.091H34.179V127.932H39.5426C39.5426 127.439 39.4441 127 39.2472 126.614C39.054 126.227 38.7775 125.922 38.4176 125.699C38.0616 125.475 37.6411 125.364 37.1562 125.364C36.6222 125.364 36.16 125.496 35.7699 125.761C35.3835 126.023 35.0862 126.364 34.8778 126.784C34.6695 127.205 34.5653 127.655 34.5653 128.136V128.909C34.5653 129.568 34.679 130.127 34.9062 130.585C35.1373 131.04 35.4574 131.386 35.8665 131.625C36.2756 131.86 36.7509 131.977 37.2926 131.977C37.6449 131.977 37.9631 131.928 38.2472 131.83C38.535 131.727 38.7831 131.576 38.9915 131.375C39.1998 131.17 39.3608 130.917 39.4744 130.614L40.7699 130.977C40.6335 131.417 40.4044 131.803 40.0824 132.136C39.7604 132.466 39.3627 132.723 38.8892 132.909C38.4157 133.091 37.8835 133.182 37.2926 133.182Z" fill="#505050"/>
<rect x="204" y="108" width="322.38" height="36" fill="white"/>
<line x1="204.5" y1="108" x2="204.5" y2="144" stroke="#E0E7E9"/>
<path d="M219.136 132.159C218.386 132.159 217.718 132.03 217.131 131.773C216.547 131.515 216.083 131.157 215.739 130.699C215.398 130.237 215.212 129.701 215.182 129.091H216.614C216.644 129.466 216.773 129.79 217 130.062C217.227 130.331 217.525 130.54 217.892 130.688C218.259 130.835 218.667 130.909 219.114 130.909C219.614 130.909 220.057 130.822 220.443 130.648C220.83 130.473 221.133 130.231 221.352 129.92C221.572 129.61 221.682 129.25 221.682 128.841C221.682 128.413 221.576 128.036 221.364 127.71C221.152 127.381 220.841 127.123 220.432 126.938C220.023 126.752 219.523 126.659 218.932 126.659H218V125.409H218.932C219.394 125.409 219.799 125.326 220.148 125.159C220.5 124.992 220.775 124.758 220.972 124.455C221.172 124.152 221.273 123.795 221.273 123.386C221.273 122.992 221.186 122.65 221.011 122.358C220.837 122.066 220.591 121.839 220.273 121.676C219.958 121.513 219.587 121.432 219.159 121.432C218.758 121.432 218.379 121.506 218.023 121.653C217.67 121.797 217.383 122.008 217.159 122.284C216.936 122.557 216.814 122.886 216.795 123.273H215.432C215.455 122.663 215.638 122.129 215.983 121.67C216.328 121.208 216.778 120.848 217.335 120.591C217.896 120.333 218.511 120.205 219.182 120.205C219.902 120.205 220.519 120.35 221.034 120.642C221.549 120.93 221.945 121.311 222.222 121.784C222.498 122.258 222.636 122.769 222.636 123.318C222.636 123.973 222.464 124.532 222.119 124.994C221.778 125.456 221.314 125.777 220.727 125.955V126.045C221.462 126.167 222.036 126.479 222.449 126.983C222.862 127.483 223.068 128.102 223.068 128.841C223.068 129.473 222.896 130.042 222.551 130.545C222.21 131.045 221.744 131.439 221.153 131.727C220.563 132.015 219.89 132.159 219.136 132.159ZM224.919 129.614V128.455L230.033 120.364H230.874V122.159H230.306L226.442 128.273V128.364H233.328V129.614H224.919ZM230.397 132V129.261V128.722V120.364H231.738V132H230.397ZM235.28 132V123.273H236.576V124.636H236.689C236.871 124.17 237.165 123.809 237.57 123.551C237.975 123.29 238.462 123.159 239.03 123.159C239.606 123.159 240.085 123.29 240.468 123.551C240.854 123.809 241.155 124.17 241.371 124.636H241.462C241.686 124.186 242.021 123.828 242.468 123.562C242.915 123.294 243.451 123.159 244.076 123.159C244.856 123.159 245.494 123.403 245.991 123.892C246.487 124.377 246.735 125.133 246.735 126.159V132H245.394V126.159C245.394 125.515 245.218 125.055 244.866 124.778C244.513 124.502 244.099 124.364 243.621 124.364C243.008 124.364 242.532 124.549 242.195 124.92C241.858 125.288 241.689 125.754 241.689 126.318V132H240.326V126.023C240.326 125.527 240.165 125.127 239.843 124.824C239.521 124.517 239.106 124.364 238.599 124.364C238.25 124.364 237.924 124.456 237.621 124.642C237.322 124.828 237.08 125.085 236.894 125.415C236.712 125.741 236.621 126.117 236.621 126.545V132H235.28ZM248.987 132V123.273H250.282V124.636H250.396C250.578 124.17 250.871 123.809 251.276 123.551C251.682 123.29 252.168 123.159 252.737 123.159C253.312 123.159 253.792 123.29 254.174 123.551C254.561 123.809 254.862 124.17 255.078 124.636H255.168C255.392 124.186 255.727 123.828 256.174 123.562C256.621 123.294 257.157 123.159 257.782 123.159C258.562 123.159 259.201 123.403 259.697 123.892C260.193 124.377 260.441 125.133 260.441 126.159V132H259.1V126.159C259.1 125.515 258.924 125.055 258.572 124.778C258.22 124.502 257.805 124.364 257.328 124.364C256.714 124.364 256.239 124.549 255.901 124.92C255.564 125.288 255.396 125.754 255.396 126.318V132H254.032V126.023C254.032 125.527 253.871 125.127 253.549 124.824C253.227 124.517 252.812 124.364 252.305 124.364C251.956 124.364 251.631 124.456 251.328 124.642C251.028 124.828 250.786 125.085 250.6 125.415C250.418 125.741 250.328 126.117 250.328 126.545V132H248.987ZM267.993 123.273L270.084 126.841L272.175 123.273H273.72L270.902 127.636L273.72 132H272.175L270.084 128.614L267.993 132H266.447L269.22 127.636L266.447 123.273H267.993ZM279.438 129.614V128.455L284.552 120.364H285.393V122.159H284.824L280.961 128.273V128.364H287.847V129.614H279.438ZM284.915 132V129.261V128.722V120.364H286.256V132H284.915ZM293.413 132.159C292.746 132.159 292.146 132.027 291.612 131.761C291.078 131.496 290.65 131.133 290.328 130.67C290.006 130.208 289.829 129.682 289.799 129.091H291.163C291.216 129.617 291.454 130.053 291.879 130.398C292.307 130.739 292.818 130.909 293.413 130.909C293.89 130.909 294.314 130.797 294.686 130.574C295.061 130.35 295.354 130.044 295.566 129.653C295.782 129.259 295.89 128.814 295.89 128.318C295.89 127.811 295.778 127.358 295.555 126.96C295.335 126.559 295.032 126.242 294.646 126.011C294.259 125.78 293.818 125.663 293.322 125.659C292.966 125.655 292.6 125.71 292.225 125.824C291.85 125.934 291.542 126.076 291.299 126.25L289.981 126.091L290.686 120.364H296.731V121.614H291.867L291.458 125.045H291.526C291.765 124.856 292.064 124.699 292.424 124.574C292.784 124.449 293.159 124.386 293.549 124.386C294.261 124.386 294.896 124.557 295.453 124.898C296.013 125.235 296.453 125.697 296.771 126.284C297.093 126.871 297.254 127.542 297.254 128.295C297.254 129.038 297.087 129.701 296.754 130.284C296.424 130.864 295.97 131.322 295.39 131.659C294.811 131.992 294.151 132.159 293.413 132.159ZM303.106 132.159C302.25 132.159 301.521 131.926 300.919 131.46C300.316 130.991 299.856 130.311 299.538 129.42C299.22 128.527 299.061 127.447 299.061 126.182C299.061 124.924 299.22 123.85 299.538 122.96C299.86 122.066 300.322 121.384 300.924 120.915C301.53 120.441 302.258 120.205 303.106 120.205C303.955 120.205 304.68 120.441 305.282 120.915C305.888 121.384 306.351 122.066 306.669 122.96C306.991 123.85 307.152 124.924 307.152 126.182C307.152 127.447 306.993 128.527 306.674 129.42C306.356 130.311 305.896 130.991 305.294 131.46C304.691 131.926 303.962 132.159 303.106 132.159ZM303.106 130.909C303.955 130.909 304.614 130.5 305.084 129.682C305.553 128.864 305.788 127.697 305.788 126.182C305.788 125.174 305.68 124.316 305.464 123.608C305.252 122.9 304.945 122.36 304.544 121.989C304.146 121.617 303.667 121.432 303.106 121.432C302.265 121.432 301.608 121.847 301.135 122.676C300.661 123.502 300.424 124.67 300.424 126.182C300.424 127.189 300.53 128.045 300.743 128.75C300.955 129.455 301.26 129.991 301.657 130.358C302.059 130.725 302.542 130.909 303.106 130.909ZM309.134 132V123.273H310.429V124.636H310.543C310.724 124.17 311.018 123.809 311.423 123.551C311.829 123.29 312.315 123.159 312.884 123.159C313.459 123.159 313.938 123.29 314.321 123.551C314.707 123.809 315.009 124.17 315.224 124.636H315.315C315.539 124.186 315.874 123.828 316.321 123.562C316.768 123.294 317.304 123.159 317.929 123.159C318.709 123.159 319.348 123.403 319.844 123.892C320.34 124.377 320.588 125.133 320.588 126.159V132H319.247V126.159C319.247 125.515 319.071 125.055 318.719 124.778C318.366 124.502 317.952 124.364 317.474 124.364C316.861 124.364 316.385 124.549 316.048 124.92C315.711 125.288 315.543 125.754 315.543 126.318V132H314.179V126.023C314.179 125.527 314.018 125.127 313.696 124.824C313.374 124.517 312.959 124.364 312.452 124.364C312.103 124.364 311.777 124.456 311.474 124.642C311.175 124.828 310.933 125.085 310.747 125.415C310.565 125.741 310.474 126.117 310.474 126.545V132H309.134ZM322.84 132V123.273H324.135V124.636H324.249C324.431 124.17 324.724 123.809 325.13 123.551C325.535 123.29 326.022 123.159 326.59 123.159C327.166 123.159 327.645 123.29 328.027 123.551C328.414 123.809 328.715 124.17 328.931 124.636H329.022C329.245 124.186 329.58 123.828 330.027 123.562C330.474 123.294 331.01 123.159 331.635 123.159C332.416 123.159 333.054 123.403 333.55 123.892C334.046 124.377 334.294 125.133 334.294 126.159V132H332.953V126.159C332.953 125.515 332.777 125.055 332.425 124.778C332.073 124.502 331.658 124.364 331.181 124.364C330.567 124.364 330.092 124.549 329.755 124.92C329.417 125.288 329.249 125.754 329.249 126.318V132H327.885V126.023C327.885 125.527 327.724 125.127 327.402 124.824C327.08 124.517 326.666 124.364 326.158 124.364C325.809 124.364 325.484 124.456 325.181 124.642C324.881 124.828 324.639 125.085 324.453 125.415C324.272 125.741 324.181 126.117 324.181 126.545V132H322.84ZM341.846 123.273L343.937 126.841L346.028 123.273H347.573L344.755 127.636L347.573 132H346.028L343.937 128.614L341.846 132H340.301L343.073 127.636L340.301 123.273H341.846ZM357.655 120.364V132H356.246V121.841H356.178L353.337 123.727V122.295L356.246 120.364H357.655ZM364.506 120.205C364.983 120.208 365.461 120.299 365.938 120.477C366.415 120.655 366.851 120.951 367.245 121.364C367.639 121.773 367.955 122.331 368.193 123.04C368.432 123.748 368.551 124.636 368.551 125.705C368.551 126.739 368.453 127.657 368.256 128.46C368.063 129.259 367.782 129.934 367.415 130.483C367.051 131.032 366.608 131.449 366.086 131.733C365.567 132.017 364.979 132.159 364.324 132.159C363.673 132.159 363.091 132.03 362.58 131.773C362.072 131.511 361.656 131.15 361.33 130.688C361.008 130.222 360.801 129.682 360.711 129.068H362.097C362.222 129.602 362.47 130.044 362.841 130.392C363.216 130.737 363.711 130.909 364.324 130.909C365.222 130.909 365.93 130.517 366.449 129.733C366.972 128.949 367.233 127.841 367.233 126.409H367.142C366.93 126.727 366.678 127.002 366.387 127.233C366.095 127.464 365.771 127.642 365.415 127.767C365.059 127.892 364.68 127.955 364.279 127.955C363.612 127.955 363 127.79 362.443 127.46C361.89 127.127 361.447 126.67 361.114 126.091C360.784 125.508 360.62 124.841 360.62 124.091C360.62 123.379 360.779 122.727 361.097 122.136C361.419 121.542 361.87 121.068 362.449 120.716C363.032 120.364 363.718 120.193 364.506 120.205ZM364.506 121.455C364.029 121.455 363.599 121.574 363.216 121.812C362.837 122.047 362.536 122.366 362.313 122.767C362.093 123.165 361.983 123.606 361.983 124.091C361.983 124.576 362.089 125.017 362.301 125.415C362.517 125.809 362.811 126.123 363.182 126.358C363.557 126.589 363.983 126.705 364.461 126.705C364.82 126.705 365.156 126.634 365.466 126.494C365.777 126.35 366.048 126.155 366.279 125.909C366.514 125.659 366.697 125.377 366.83 125.062C366.962 124.744 367.029 124.413 367.029 124.068C367.029 123.614 366.919 123.187 366.699 122.79C366.483 122.392 366.184 122.07 365.801 121.824C365.423 121.578 364.991 121.455 364.506 121.455ZM370.609 132V123.273H371.904V124.636H372.018C372.199 124.17 372.493 123.809 372.898 123.551C373.304 123.29 373.79 123.159 374.359 123.159C374.934 123.159 375.413 123.29 375.796 123.551C376.182 123.809 376.484 124.17 376.699 124.636H376.79C377.014 124.186 377.349 123.828 377.796 123.562C378.243 123.294 378.779 123.159 379.404 123.159C380.184 123.159 380.823 123.403 381.319 123.892C381.815 124.377 382.063 125.133 382.063 126.159V132H380.722V126.159C380.722 125.515 380.546 125.055 380.194 124.778C379.841 124.502 379.427 124.364 378.949 124.364C378.336 124.364 377.86 124.549 377.523 124.92C377.186 125.288 377.018 125.754 377.018 126.318V132H375.654V126.023C375.654 125.527 375.493 125.127 375.171 124.824C374.849 124.517 374.434 124.364 373.927 124.364C373.578 124.364 373.252 124.456 372.949 124.642C372.65 124.828 372.408 125.085 372.222 125.415C372.04 125.741 371.949 126.117 371.949 126.545V132H370.609ZM384.315 132V123.273H385.61V124.636H385.724C385.906 124.17 386.199 123.809 386.605 123.551C387.01 123.29 387.497 123.159 388.065 123.159C388.641 123.159 389.12 123.29 389.502 123.551C389.889 123.809 390.19 124.17 390.406 124.636H390.497C390.72 124.186 391.055 123.828 391.502 123.562C391.949 123.294 392.485 123.159 393.11 123.159C393.891 123.159 394.529 123.403 395.025 123.892C395.521 124.377 395.769 125.133 395.769 126.159V132H394.428V126.159C394.428 125.515 394.252 125.055 393.9 124.778C393.548 124.502 393.133 124.364 392.656 124.364C392.042 124.364 391.567 124.549 391.23 124.92C390.892 125.288 390.724 125.754 390.724 126.318V132H389.36V126.023C389.36 125.527 389.199 125.127 388.877 124.824C388.555 124.517 388.141 124.364 387.633 124.364C387.284 124.364 386.959 124.456 386.656 124.642C386.356 124.828 386.114 125.085 385.928 125.415C385.747 125.741 385.656 126.117 385.656 126.545V132H384.315Z" fill="#505050"/>
<line y1="108.5" x2="567" y2="108.5" stroke="#E0E7E9"/>
<rect y="144" width="204" height="36" fill="#EFF2F4"/>
<path d="M11.4091 157.364H13.0909L17.0455 167.023H17.1818L21.1364 157.364H22.8182V169H21.5V160.159H21.3864L17.75 169H16.4773L12.8409 160.159H12.7273V169H11.4091V157.364ZM29.1207 169.182C28.2798 169.182 27.5545 168.996 26.9446 168.625C26.3385 168.25 25.8707 167.727 25.5412 167.057C25.2154 166.383 25.0526 165.598 25.0526 164.705C25.0526 163.811 25.2154 163.023 25.5412 162.341C25.8707 161.655 26.3291 161.121 26.9162 160.739C27.5071 160.352 28.1965 160.159 28.9844 160.159C29.4389 160.159 29.8878 160.235 30.331 160.386C30.7741 160.538 31.1776 160.784 31.5412 161.125C31.9048 161.462 32.1946 161.909 32.4105 162.466C32.6264 163.023 32.7344 163.708 32.7344 164.523V165.091H26.0071V163.932H31.3707C31.3707 163.439 31.2723 163 31.0753 162.614C30.8821 162.227 30.6056 161.922 30.2457 161.699C29.8897 161.475 29.4692 161.364 28.9844 161.364C28.4503 161.364 27.9882 161.496 27.598 161.761C27.2116 162.023 26.9143 162.364 26.706 162.784C26.4976 163.205 26.3935 163.655 26.3935 164.136V164.909C26.3935 165.568 26.5071 166.127 26.7344 166.585C26.9654 167.04 27.2855 167.386 27.6946 167.625C28.1037 167.86 28.5791 167.977 29.1207 167.977C29.473 167.977 29.7912 167.928 30.0753 167.83C30.3632 167.727 30.6113 167.576 30.8196 167.375C31.0279 167.17 31.1889 166.917 31.3026 166.614L32.598 166.977C32.4616 167.417 32.2325 167.803 31.9105 168.136C31.5885 168.466 31.1908 168.723 30.7173 168.909C30.2438 169.091 29.7116 169.182 29.1207 169.182ZM34.7741 169V160.273H36.0696V161.636H36.1832C36.3651 161.17 36.6586 160.809 37.0639 160.551C37.4692 160.29 37.956 160.159 38.5241 160.159C39.0999 160.159 39.5791 160.29 39.9616 160.551C40.348 160.809 40.6491 161.17 40.8651 161.636H40.956C41.1795 161.186 41.5147 160.828 41.9616 160.562C42.4086 160.294 42.9446 160.159 43.5696 160.159C44.3499 160.159 44.9882 160.403 45.4844 160.892C45.9806 161.377 46.2287 162.133 46.2287 163.159V169H44.8878V163.159C44.8878 162.515 44.7116 162.055 44.3594 161.778C44.0071 161.502 43.5923 161.364 43.1151 161.364C42.5014 161.364 42.026 161.549 41.6889 161.92C41.3518 162.288 41.1832 162.754 41.1832 163.318V169H39.8196V163.023C39.8196 162.527 39.6586 162.127 39.3366 161.824C39.0147 161.517 38.5999 161.364 38.0923 161.364C37.7438 161.364 37.4181 161.456 37.1151 161.642C36.8158 161.828 36.5734 162.085 36.3878 162.415C36.206 162.741 36.1151 163.117 36.1151 163.545V169H34.7741ZM52.2259 169.182C51.438 169.182 50.7467 168.994 50.152 168.619C49.5611 168.244 49.099 167.72 48.7656 167.045C48.4361 166.371 48.2713 165.583 48.2713 164.682C48.2713 163.773 48.4361 162.979 48.7656 162.301C49.099 161.623 49.5611 161.097 50.152 160.722C50.7467 160.347 51.438 160.159 52.2259 160.159C53.0137 160.159 53.7031 160.347 54.294 160.722C54.8887 161.097 55.3509 161.623 55.6804 162.301C56.0137 162.979 56.1804 163.773 56.1804 164.682C56.1804 165.583 56.0137 166.371 55.6804 167.045C55.3509 167.72 54.8887 168.244 54.294 168.619C53.7031 168.994 53.0137 169.182 52.2259 169.182ZM52.2259 167.977C52.8243 167.977 53.3168 167.824 53.7031 167.517C54.0895 167.21 54.3755 166.807 54.5611 166.307C54.7467 165.807 54.8395 165.265 54.8395 164.682C54.8395 164.098 54.7467 163.555 54.5611 163.051C54.3755 162.547 54.0895 162.14 53.7031 161.83C53.3168 161.519 52.8243 161.364 52.2259 161.364C51.6274 161.364 51.1349 161.519 50.7486 161.83C50.3622 162.14 50.0762 162.547 49.8906 163.051C49.705 163.555 49.6122 164.098 49.6122 164.682C49.6122 165.265 49.705 165.807 49.8906 166.307C50.0762 166.807 50.3622 167.21 50.7486 167.517C51.1349 167.824 51.6274 167.977 52.2259 167.977ZM58.2273 169V160.273H59.5227V161.591H59.6136C59.7727 161.159 60.0606 160.809 60.4773 160.54C60.8939 160.271 61.3636 160.136 61.8864 160.136C61.9848 160.136 62.108 160.138 62.2557 160.142C62.4034 160.146 62.5152 160.152 62.5909 160.159V161.523C62.5455 161.511 62.4413 161.494 62.2784 161.472C62.1193 161.445 61.9508 161.432 61.7727 161.432C61.3485 161.432 60.9697 161.521 60.6364 161.699C60.3068 161.873 60.0455 162.116 59.8523 162.426C59.6629 162.733 59.5682 163.083 59.5682 163.477V169H58.2273ZM65.3097 172.273C65.0824 172.273 64.8797 172.254 64.7017 172.216C64.5237 172.182 64.4006 172.148 64.3324 172.114L64.6733 170.932C64.9991 171.015 65.2869 171.045 65.5369 171.023C65.7869 171 66.0085 170.888 66.2017 170.688C66.3987 170.491 66.5786 170.17 66.7415 169.727L66.9915 169.045L63.7642 160.273H65.2188L67.6278 167.227H67.7188L70.1278 160.273H71.5824L67.8778 170.273C67.7112 170.723 67.5047 171.097 67.2585 171.392C67.0123 171.691 66.7263 171.913 66.4006 172.057C66.0786 172.201 65.715 172.273 65.3097 172.273Z" fill="#505050"/>
<rect x="204" y="144" width="322.38" height="36" fill="white"/>
<line x1="204.5" y1="144" x2="204.5" y2="180" stroke="#E0E7E9"/>
<path d="M219.136 168.159C218.386 168.159 217.718 168.03 217.131 167.773C216.547 167.515 216.083 167.157 215.739 166.699C215.398 166.237 215.212 165.701 215.182 165.091H216.614C216.644 165.466 216.773 165.79 217 166.062C217.227 166.331 217.525 166.54 217.892 166.688C218.259 166.835 218.667 166.909 219.114 166.909C219.614 166.909 220.057 166.822 220.443 166.648C220.83 166.473 221.133 166.231 221.352 165.92C221.572 165.61 221.682 165.25 221.682 164.841C221.682 164.413 221.576 164.036 221.364 163.71C221.152 163.381 220.841 163.123 220.432 162.938C220.023 162.752 219.523 162.659 218.932 162.659H218V161.409H218.932C219.394 161.409 219.799 161.326 220.148 161.159C220.5 160.992 220.775 160.758 220.972 160.455C221.172 160.152 221.273 159.795 221.273 159.386C221.273 158.992 221.186 158.65 221.011 158.358C220.837 158.066 220.591 157.839 220.273 157.676C219.958 157.513 219.587 157.432 219.159 157.432C218.758 157.432 218.379 157.506 218.023 157.653C217.67 157.797 217.383 158.008 217.159 158.284C216.936 158.557 216.814 158.886 216.795 159.273H215.432C215.455 158.663 215.638 158.129 215.983 157.67C216.328 157.208 216.778 156.848 217.335 156.591C217.896 156.333 218.511 156.205 219.182 156.205C219.902 156.205 220.519 156.35 221.034 156.642C221.549 156.93 221.945 157.311 222.222 157.784C222.498 158.258 222.636 158.769 222.636 159.318C222.636 159.973 222.464 160.532 222.119 160.994C221.778 161.456 221.314 161.777 220.727 161.955V162.045C221.462 162.167 222.036 162.479 222.449 162.983C222.862 163.483 223.068 164.102 223.068 164.841C223.068 165.473 222.896 166.042 222.551 166.545C222.21 167.045 221.744 167.439 221.153 167.727C220.563 168.015 219.89 168.159 219.136 168.159ZM229.056 168.159C228.578 168.152 228.101 168.061 227.624 167.886C227.147 167.712 226.711 167.419 226.317 167.006C225.923 166.589 225.607 166.027 225.368 165.318C225.13 164.606 225.01 163.712 225.01 162.636C225.01 161.606 225.107 160.693 225.3 159.898C225.493 159.098 225.773 158.426 226.141 157.881C226.508 157.331 226.952 156.915 227.47 156.631C227.993 156.347 228.582 156.205 229.238 156.205C229.889 156.205 230.469 156.335 230.976 156.597C231.488 156.854 231.904 157.214 232.226 157.676C232.548 158.138 232.756 158.67 232.851 159.273H231.465C231.336 158.75 231.086 158.316 230.715 157.972C230.344 157.627 229.851 157.455 229.238 157.455C228.336 157.455 227.626 157.847 227.107 158.631C226.592 159.415 226.332 160.515 226.328 161.932H226.419C226.631 161.61 226.883 161.335 227.175 161.108C227.47 160.877 227.796 160.699 228.152 160.574C228.508 160.449 228.885 160.386 229.283 160.386C229.95 160.386 230.559 160.553 231.113 160.886C231.666 161.216 232.109 161.672 232.442 162.256C232.775 162.835 232.942 163.5 232.942 164.25C232.942 164.97 232.781 165.629 232.459 166.227C232.137 166.822 231.684 167.295 231.101 167.648C230.522 167.996 229.84 168.167 229.056 168.159ZM229.056 166.909C229.533 166.909 229.961 166.79 230.34 166.551C230.722 166.312 231.023 165.992 231.243 165.591C231.467 165.189 231.578 164.742 231.578 164.25C231.578 163.769 231.47 163.331 231.255 162.938C231.042 162.54 230.749 162.223 230.374 161.989C230.003 161.754 229.578 161.636 229.101 161.636C228.741 161.636 228.406 161.708 228.095 161.852C227.785 161.992 227.512 162.186 227.277 162.432C227.046 162.678 226.864 162.96 226.732 163.278C226.599 163.593 226.533 163.924 226.533 164.273C226.533 164.735 226.641 165.167 226.857 165.568C227.077 165.97 227.376 166.294 227.755 166.54C228.137 166.786 228.571 166.909 229.056 166.909ZM243.136 160C243.011 159.617 242.846 159.275 242.641 158.972C242.44 158.665 242.2 158.403 241.92 158.188C241.643 157.972 241.329 157.807 240.976 157.693C240.624 157.58 240.238 157.523 239.817 157.523C239.128 157.523 238.501 157.701 237.937 158.057C237.372 158.413 236.923 158.938 236.59 159.631C236.257 160.324 236.09 161.174 236.09 162.182C236.09 163.189 236.259 164.04 236.596 164.733C236.933 165.426 237.389 165.951 237.965 166.307C238.541 166.663 239.189 166.841 239.908 166.841C240.575 166.841 241.162 166.699 241.67 166.415C242.181 166.127 242.579 165.722 242.863 165.199C243.151 164.672 243.295 164.053 243.295 163.341L243.726 163.432H240.226V162.182H244.658V163.432C244.658 164.39 244.454 165.223 244.045 165.932C243.639 166.64 243.079 167.189 242.363 167.58C241.651 167.966 240.832 168.159 239.908 168.159C238.878 168.159 237.973 167.917 237.192 167.432C236.416 166.947 235.81 166.258 235.374 165.364C234.942 164.47 234.726 163.409 234.726 162.182C234.726 161.261 234.85 160.434 235.096 159.699C235.346 158.96 235.698 158.331 236.153 157.812C236.607 157.294 237.145 156.896 237.766 156.619C238.387 156.343 239.071 156.205 239.817 156.205C240.431 156.205 241.003 156.297 241.533 156.483C242.067 156.665 242.543 156.924 242.959 157.261C243.38 157.595 243.73 157.994 244.011 158.46C244.291 158.922 244.484 159.436 244.59 160H243.136ZM246.872 168V156.364H250.94C251.75 156.364 252.419 156.504 252.945 156.784C253.472 157.061 253.864 157.434 254.122 157.903C254.379 158.369 254.508 158.886 254.508 159.455C254.508 159.955 254.419 160.367 254.241 160.693C254.067 161.019 253.836 161.277 253.548 161.466C253.264 161.655 252.955 161.795 252.622 161.886V162C252.978 162.023 253.336 162.148 253.695 162.375C254.055 162.602 254.356 162.928 254.599 163.352C254.841 163.777 254.962 164.295 254.962 164.909C254.962 165.492 254.83 166.017 254.565 166.483C254.3 166.949 253.881 167.318 253.309 167.591C252.737 167.864 251.993 168 251.076 168H246.872ZM248.281 166.75H251.076C251.997 166.75 252.65 166.572 253.036 166.216C253.427 165.856 253.622 165.42 253.622 164.909C253.622 164.515 253.521 164.152 253.32 163.818C253.12 163.481 252.834 163.212 252.462 163.011C252.091 162.807 251.652 162.705 251.144 162.705H248.281V166.75ZM248.281 161.477H250.894C251.319 161.477 251.701 161.394 252.042 161.227C252.387 161.061 252.659 160.826 252.86 160.523C253.065 160.22 253.167 159.864 253.167 159.455C253.167 158.943 252.989 158.509 252.633 158.153C252.277 157.794 251.712 157.614 250.94 157.614H248.281V161.477ZM261.378 168V156.364H265.31C266.219 156.364 266.965 156.519 267.548 156.83C268.132 157.136 268.563 157.559 268.844 158.097C269.124 158.634 269.264 159.246 269.264 159.932C269.264 160.617 269.124 161.225 268.844 161.756C268.563 162.286 268.134 162.703 267.554 163.006C266.974 163.305 266.234 163.455 265.332 163.455H262.151V162.182H265.287C265.908 162.182 266.408 162.091 266.787 161.909C267.17 161.727 267.446 161.47 267.616 161.136C267.791 160.799 267.878 160.398 267.878 159.932C267.878 159.466 267.791 159.059 267.616 158.71C267.442 158.362 267.164 158.093 266.781 157.903C266.399 157.71 265.893 157.614 265.264 157.614H262.787V168H261.378ZM266.855 162.773L269.719 168H268.082L265.264 162.773H266.855ZM271.889 168H270.412L274.685 156.364H276.139L280.412 168H278.935L275.458 158.205H275.367L271.889 168ZM272.435 163.455H278.389V164.705H272.435V163.455ZM282.025 156.364H283.707L287.661 166.023H287.797L291.752 156.364H293.434V168H292.116V159.159H292.002L288.366 168H287.093L283.457 159.159H283.343V168H282.025V156.364Z" fill="#505050"/>
<line y1="144.5" x2="567" y2="144.5" stroke="#E0E7E9"/>
</g>
<rect x="0.5" y="0.5" width="566" height="179" stroke="#E0E7E9"/>
<defs>
<clipPath id="clip0_1_5528">
<rect width="567" height="180" fill="white"/>
</clipPath>
</defs>
</svg>
